<svg xmlns="http://www.w3.org/2000/svg" viewBox="0 0 500 500"><g id="freepik--background-complete--inject-66"><path d="M42.91,232.6s75.57-43.44,122.43-43.44c56.28,0,111,19.36,131.7,25.75,54.49,16.79,160,17.69,160,17.69Z" style="fill:#dbdbdb"></path><path d="M457.09,232.6s-42.91-25.27-91.38-25.27c-33.84,0-82.4,5.23-128.13,13.81-17.42,3.26-108.07,11.46-108.07,11.46Z" style="fill:#c7c7c7"></path><polygon points="279.62 192.22 280.49 193.98 282.44 194.26 281.03 195.63 281.36 197.57 279.62 196.65 277.89 197.57 278.22 195.63 276.81 194.26 278.75 193.98 279.62 192.22" style="fill:#dbdbdb"></polygon><polygon points="402 75.77 402.87 77.53 404.81 77.81 403.4 79.18 403.74 81.12 402 80.2 400.26 81.12 400.59 79.18 399.19 77.81 401.13 77.53 402 75.77" style="fill:#dbdbdb"></polygon><polygon points="229.19 125.51 230.06 127.27 232.01 127.56 230.6 128.93 230.93 130.86 229.19 129.95 227.46 130.86 227.79 128.93 226.38 127.56 228.33 127.27 229.19 125.51" style="fill:#dbdbdb"></polygon><polygon points="105.23 111.71 106.1 113.47 108.04 113.76 106.63 115.13 106.97 117.06 105.23 116.15 103.49 117.06 103.82 115.13 102.42 113.76 104.36 113.47 105.23 111.71" style="fill:#dbdbdb"></polygon><polygon points="41.65 55.41 42.19 56.5 43.39 56.67 42.52 57.52 42.73 58.72 41.65 58.15 40.58 58.72 40.78 57.52 39.91 56.67 41.12 56.5 41.65 55.41" style="fill:#dbdbdb"></polygon><polygon points="114.66 121.15 115.2 122.23 116.4 122.41 115.53 123.26 115.74 124.45 114.66 123.89 113.59 124.45 113.79 123.26 112.92 122.41 114.13 122.23 114.66 121.15" style="fill:#dbdbdb"></polygon><polygon points="349.63 156.85 350.17 157.94 351.37 158.11 350.5 158.96 350.7 160.15 349.63 159.59 348.56 160.15 348.76 158.96 347.89 158.11 349.09 157.94 349.63 156.85" style="fill:#dbdbdb"></polygon><polygon points="280.97 78.44 281.5 79.53 282.7 79.7 281.84 80.55 282.04 81.75 280.97 81.18 279.89 81.75 280.1 80.55 279.23 79.7 280.43 79.53 280.97 78.44" style="fill:#dbdbdb"></polygon><polygon points="458.35 138.01 458.88 139.1 460.09 139.28 459.22 140.12 459.42 141.32 458.35 140.75 457.27 141.32 457.48 140.12 456.61 139.28 457.81 139.1 458.35 138.01" style="fill:#dbdbdb"></polygon><path d="M277.17,101.55a29.09,29.09,0,1,1-31.69-42.83,27.21,27.21,0,1,0,31.69,42.83Z" style="fill:#dbdbdb"></path></g><g id="freepik--Trees--inject-66"><path d="M455.25,208.55c-1.75,1.74-22.1,2.52-29.5,2.52s-27.74-.78-29.49-2.52,22.9-137,29.49-137S457,206.8,455.25,208.55Z" style="fill:#455a64"></path><path d="M455.65,174.09c-5,1.91-23.65,9.5-27.67,11.71,0-.85,0-1.7,0-2.54,4.49-2.65,9-5.26,13.51-7.88,4.83-2.82,10-5.33,14.53-8.64.22-.17.1-.62-.2-.49-5,2.07-9.59,5.14-14.22,7.86s-9.11,5.45-13.62,8.23q0-9.72-.08-19.44a154.36,154.36,0,0,0,21.22-10.79c.23-.13.08-.56-.19-.45a156.71,156.71,0,0,0-21,10.37q0-5.06-.07-10.11c-.19-17.35-.22-34.72-.66-52.08,4.41-2.23,9-4.19,13.37-6.43.29-.15.09-.65-.22-.53-4.48,1.74-8.79,3.82-13.19,5.75-.24-8.95-.58-17.9-1.12-26.84a.24.24,0,0,0-.47,0c-.62,16.62-.56,33.26-.36,49.9-4.57-3.66-9.45-6.88-14.1-10.43-.18-.13-.36.17-.18.31,4.87,3.7,9.42,7.8,14.3,11.5,0,.94,0,1.88,0,2.81-5-2.26-10-4.37-15-6.52-.39-.17-.74.4-.34.59,5.11,2.45,10.2,4.94,15.37,7.25.11,8.24.25,16.48.36,24.72.19,14.39.51,28.77.81,43.16q-14-7.1-28.29-13.82c-.36-.17-.68.34-.32.55a296.92,296.92,0,0,0,28.64,14.38c.25,11.95.5,23.91.65,35.86a.57.57,0,0,0,1.13,0c-.17-15.24-.19-30.49-.23-45.74,4.93-1.22,23.58-9.21,28-11.39C456.46,174.69,456.14,173.9,455.65,174.09Z" style="fill:#37474f"></path><path d="M101.54,209.11c-1.7,1.7-21.58,2.46-28.8,2.46s-27.1-.76-28.81-2.46S66.29,75.31,72.74,75.31,103.25,207.4,101.54,209.11Z" style="fill:#455a64"></path><path d="M101.94,175.45c-4.91,1.87-23.1,9.28-27,11.44,0-.83,0-1.66,0-2.49,4.39-2.58,8.79-5.13,13.19-7.69,4.73-2.75,9.8-5.2,14.2-8.44.22-.16.1-.6-.2-.48-4.85,2-9.36,5-13.89,7.68s-8.89,5.32-13.3,8q0-9.49-.08-19A151.11,151.11,0,0,0,95.55,154c.22-.14.07-.55-.19-.45a153,153,0,0,0-20.55,10.13c0-3.29,0-6.58-.07-9.87-.18-17-.21-33.92-.64-50.87,4.31-2.17,8.75-4.09,13.06-6.28.28-.14.09-.64-.22-.52-4.37,1.71-8.58,3.73-12.88,5.62C73.83,93,73.5,84.26,73,75.53a.23.23,0,0,0-.45,0c-.6,16.24-.55,32.49-.35,48.74-4.47-3.57-9.23-6.72-13.78-10.18-.17-.14-.34.16-.17.29,4.75,3.62,9.2,7.63,14,11.24l0,2.75c-4.84-2.21-9.76-4.28-14.65-6.37-.38-.17-.73.38-.34.57,5,2.39,10,4.83,15,7.09q.18,12.08.36,24.14c.18,14,.49,28.1.79,42.15Q59.67,189,45.74,182.46c-.35-.17-.66.33-.31.53a290,290,0,0,0,28,14c.25,11.67.49,23.35.64,35a.55.55,0,0,0,1.1,0c-.16-14.9-.18-29.79-.22-44.68,4.82-1.19,23-9,27.36-11.13C102.73,176,102.41,175.27,101.94,175.45Z" style="fill:#37474f"></path><path d="M404.57,211.84c-1.51,1.51-19.07,2.18-25.45,2.18s-23.95-.67-25.46-2.18S373.42,93.62,379.12,93.62,406.08,210.33,404.57,211.84Z" style="fill:#37474f"></path><path d="M404.92,182.1c-4.34,1.66-20.41,8.2-23.88,10.11,0-.73,0-1.47,0-2.2q5.82-3.42,11.66-6.8c4.17-2.43,8.65-4.59,12.54-7.45.19-.14.09-.53-.18-.42-4.28,1.78-8.27,4.43-12.27,6.78s-7.86,4.7-11.75,7.11q0-8.4-.07-16.78a134.57,134.57,0,0,0,18.31-9.31c.2-.12.07-.49-.16-.4A135.35,135.35,0,0,0,381,171.69c0-2.9,0-5.81-.06-8.72-.16-15-.19-30-.57-44.95,3.81-1.92,7.73-3.62,11.54-5.55.25-.13.08-.56-.19-.46-3.87,1.51-7.59,3.3-11.38,5-.21-7.73-.5-15.46-1-23.17a.2.2,0,0,0-.4,0c-.54,14.34-.49,28.71-.31,43.07-3.95-3.16-8.16-5.94-12.18-9-.15-.12-.3.15-.15.26,4.2,3.2,8.13,6.74,12.34,9.93l0,2.43c-4.28-2-8.62-3.78-12.95-5.63-.33-.15-.64.34-.29.5,4.41,2.12,8.8,4.27,13.26,6.27.1,7.11.22,14.22.32,21.33.16,12.42.43,24.83.7,37.25q-12.12-6.14-24.42-11.93c-.32-.14-.59.3-.28.47a254.85,254.85,0,0,0,24.72,12.42c.21,10.31.43,20.63.56,30.95a.49.49,0,0,0,1,0c-.14-13.16-.16-26.32-.2-39.48,4.26-1.05,20.36-8,24.19-9.83C405.62,182.62,405.34,181.94,404.92,182.1Z" style="fill:#455a64"></path><path d="M179.21,207.34c-1.84,1.83-23.21,2.65-31,2.65s-29.14-.82-31-2.65,24.05-143.88,31-143.88S181,205.5,179.21,207.34Z" style="fill:#37474f"></path><path d="M179.63,171.14c-5.27,2-24.83,10-29.06,12.3,0-.89,0-1.78,0-2.67,4.72-2.78,9.45-5.52,14.18-8.28,5.08-3,10.54-5.59,15.27-9.07.23-.17.1-.64-.21-.51-5.23,2.17-10.07,5.4-14.94,8.25s-9.56,5.72-14.3,8.65q0-10.2-.09-20.42a162.58,162.58,0,0,0,22.29-11.33c.24-.14.08-.59-.2-.47a163.53,163.53,0,0,0-22.1,10.89q0-5.31-.07-10.62c-.2-18.23-.23-36.47-.7-54.7,4.64-2.34,9.42-4.41,14.05-6.76.31-.15.09-.68-.23-.56-4.71,1.84-9.24,4-13.85,6-.26-9.41-.61-18.81-1.19-28.2a.24.24,0,0,0-.48,0c-.65,17.46-.6,34.94-.38,52.41-4.8-3.83-9.93-7.23-14.82-10.95-.19-.14-.37.18-.18.32,5.11,3.89,9.89,8.2,15,12.08,0,1,0,2,0,3-5.21-2.38-10.5-4.6-15.76-6.85-.42-.18-.78.41-.36.62,5.36,2.57,10.7,5.19,16.14,7.62.12,8.65.27,17.31.38,26,.2,15.11.53,30.22.85,45.33q-14.74-7.45-29.72-14.51c-.38-.18-.71.36-.33.57a311.71,311.71,0,0,0,30.07,15.11c.27,12.55.53,25.11.69,37.67a.6.6,0,0,0,1.19,0c-.18-16-.2-32-.25-48.05,5.19-1.28,24.78-9.67,29.43-12C180.48,171.78,180.14,171,179.63,171.14Z" style="fill:#455a64"></path><path d="M184.23,214.94c1.28,1.29,16.22,1.86,21.65,1.86s20.37-.57,21.65-1.86-16.81-100.55-21.65-100.55S183,213.66,184.23,214.94Z" style="fill:#455a64"></path><path d="M183.93,189.65c3.69,1.4,17.36,7,20.31,8.59,0-.62,0-1.24,0-1.86-3.3-1.94-6.6-3.86-9.91-5.79-3.55-2.06-7.36-3.91-10.67-6.34-.16-.12-.07-.45.15-.36a87.76,87.76,0,0,1,10.44,5.77c3.36,2,6.68,4,10,6.05,0-4.76,0-9.52.06-14.27a113.87,113.87,0,0,1-15.57-7.92c-.17-.11-.06-.42.14-.34a114.63,114.63,0,0,1,15.44,7.62c0-2.48,0-5,.05-7.42.14-12.74.16-25.5.49-38.24-3.24-1.63-6.58-3.07-9.82-4.72-.21-.1-.06-.48.16-.39,3.29,1.29,6.46,2.81,9.68,4.23.18-6.58.43-13.15.83-19.71a.17.17,0,0,1,.34,0c.45,12.2.42,24.42.26,36.63,3.36-2.68,6.94-5.05,10.36-7.65.13-.1.26.12.13.22-3.57,2.72-6.92,5.73-10.5,8.44l0,2.07c3.64-1.66,7.34-3.21,11-4.79.29-.12.54.29.25.43-3.75,1.8-7.48,3.63-11.28,5.33q-.13,9.08-.27,18.15c-.14,10.56-.37,21.12-.59,31.68q10.31-5.22,20.77-10.14c.26-.13.49.24.23.39a215,215,0,0,1-21,10.56c-.19,8.78-.37,17.55-.48,26.33a.42.42,0,0,1-.83,0c.12-11.19.14-22.39.17-33.58-3.62-.89-17.31-6.76-20.57-8.36C183.34,190.09,183.58,189.51,183.93,189.65Z" style="fill:#37474f"></path><path d="M101.77,214.94c1.29,1.29,16.22,1.86,21.65,1.86s20.37-.57,21.65-1.86-16.8-100.55-21.65-100.55S100.49,213.66,101.77,214.94Z" style="fill:#455a64"></path><path d="M101.47,189.65c3.69,1.4,17.37,7,20.32,8.59,0-.62,0-1.24,0-1.86-3.3-1.94-6.61-3.86-9.92-5.79-3.55-2.06-7.36-3.91-10.67-6.34-.16-.12-.07-.45.15-.36a87.76,87.76,0,0,1,10.44,5.77c3.36,2,6.68,4,10,6.05q0-7.14.06-14.27a113.42,113.42,0,0,1-15.58-7.92c-.17-.11-.06-.42.14-.34a114,114,0,0,1,15.44,7.62c0-2.48,0-5,.06-7.42.13-12.74.16-25.5.48-38.24-3.24-1.63-6.58-3.07-9.82-4.72-.21-.1-.06-.48.17-.39,3.28,1.29,6.45,2.81,9.68,4.23.17-6.58.42-13.15.82-19.71a.17.17,0,0,1,.34,0c.46,12.2.42,24.42.27,36.63,3.35-2.68,6.93-5.05,10.35-7.65.13-.1.26.12.13.22-3.57,2.72-6.91,5.73-10.5,8.44,0,.69,0,1.38,0,2.07,3.64-1.66,7.33-3.21,11-4.79.29-.12.55.29.25.43-3.75,1.8-7.48,3.63-11.28,5.33-.08,6.05-.19,12.1-.26,18.15-.14,10.56-.37,21.12-.6,31.68q10.31-5.22,20.77-10.14c.27-.13.5.24.23.39a213.86,213.86,0,0,1-21,10.56c-.18,8.78-.36,17.55-.48,26.33a.42.42,0,0,1-.83,0c.13-11.19.15-22.39.18-33.58-3.63-.89-17.32-6.76-20.57-8.36C100.88,190.09,101.12,189.51,101.47,189.65Z" style="fill:#37474f"></path></g><g id="freepik--Floor--inject-66"><polygon points="38.64 232.6 91.48 232.36 144.32 232.27 250 232.1 355.68 232.27 408.52 232.35 461.36 232.6 408.52 232.84 355.68 232.93 250 233.1 144.32 232.93 91.48 232.84 38.64 232.6" style="fill:#263238"></polygon></g><g id="freepik--Shadows--inject-66"><ellipse cx="250" cy="431.91" rx="86.47" ry="13.02" style="fill:#ebebeb"></ellipse><ellipse cx="166.66" cy="335.91" rx="119.93" ry="12.62" style="fill:#ebebeb"></ellipse><ellipse cx="351.71" cy="392.68" rx="91.74" ry="12.62" style="fill:#ebebeb"></ellipse></g><g id="freepik--character-1--inject-66"><path d="M287.71,335c-2.22.86-66.94,2-69.47.59-.28-.17-.2-3-1.15-10.41-.05-.35-1.53-1.72-3.83-3.66-8.65-7.25-29-22.54-29-22.54L216.56,271l31.3,30.76,8.14,8s26.44,14.28,29.06,16.16S289.94,334.18,287.71,335Z" style="fill:#dd6a57"></path><path d="M287.71,335c-2.23.86-66.94,2-69.47.59-.27-.16-.2-3-1.15-10.41-.05-.35-1.52-1.72-3.83-3.66-3-2.52-4.44-3.67-8.92-7.16l41.06-15.09,2.46,2.41,8.14,8s26.44,14.28,29.06,16.16S289.94,334.18,287.71,335Z" style="fill:#ebebeb"></path><path d="M292.17,335.93c-2.24.78-71.19,1.54-73.68,0-.58-.36-1.11-4.36-1.54-9.85-.06-.69-7-6.27-8-7.3l42.26-14.23,5.33,5s31.09,14.47,33.64,16.43S294.42,335.15,292.17,335.93Z" style="fill:#455a64"></path><path d="M291.22,333.36c-10.84-.14-58.89.32-69.61,1-.08,0-.08.06,0,.06,10.73.38,58.78-.44,69.6-.89C291.45,333.53,291.45,333.36,291.22,333.36Z" style="fill:#263238"></path><path d="M260,310c-4.27-.74-9.48,0-12.7,3.05-.12.12.05.29.19.25a59.77,59.77,0,0,1,12.5-2.76A.27.27,0,0,0,260,310Z" style="fill:#263238"></path><path d="M263.08,311.85c-4.27-.74-9.47,0-12.69,3-.13.11.05.29.18.24a60,60,0,0,1,12.5-2.75A.27.27,0,0,0,263.08,311.85Z" style="fill:#263238"></path><path d="M266.18,313.67c-4.27-.75-9.47,0-12.69,3-.13.12,0,.3.18.25a60,60,0,0,1,12.5-2.75A.27.27,0,0,0,266.18,313.67Z" style="fill:#263238"></path><path d="M269.28,315.49c-4.27-.75-9.47,0-12.7,3-.12.12.05.3.19.25a59.89,59.89,0,0,1,12.5-2.75A.27.27,0,0,0,269.28,315.49Z" style="fill:#263238"></path><path d="M267.74,300.09c-1.7-2.29-4.8-1.22-6.57.3a22.72,22.72,0,0,0-6.45,9.84.12.12,0,0,0,.11.15.52.52,0,0,0,.67.52c3.51-1.34,7.42-2.34,10.4-4.72C267.65,304.79,269.35,302.25,267.74,300.09Zm-7.34,7.69c-1.71.7-3.44,1.32-5.12,2.08a67.58,67.58,0,0,1,3.89-5.66,24.74,24.74,0,0,1,2.23-2.47c1.25-1.16,6.25-3.68,5.55,1C266.56,305.32,262.43,306.94,260.4,307.78Z" style="fill:#263238"></path><path d="M243.88,309.24c3.53,1.46,7.57,1.33,11.31,1.65.38,0,.57-.37.5-.69.06,0,.11-.1.05-.17a22.57,22.57,0,0,0-8.92-7.66c-2.12-1-5.4-1.14-6.4,1.53S241.82,308.39,243.88,309.24Zm-2-3c-2-4.31,3.52-3.28,5.05-2.51a24.73,24.73,0,0,1,2.83,1.75,67.2,67.2,0,0,1,5.31,4.36c-1.82-.27-3.66-.38-5.49-.58C247.43,309,243,308.6,241.92,306.23Z" style="fill:#263238"></path><path d="M248.31,300l-39.92,20.68S166.8,283.05,163,282.77s-59.76,37.68-87.92,37.8c-29.18.12-30.65-30.44-30.65-30.44L87,280.35c30.68-15.12,62.63-42.27,83.53-39.74C193.2,243.37,248.31,300,248.31,300Z" style="fill:#263238"></path><path d="M238.55,294.74c-6.73,3.33-4.84,2.28-11.55,5.68-3.28,1.67-19.78,10-22.59,12.06a.08.08,0,0,0,.07.13c3.3-1.11,19.62-9.79,22.87-11.51,6.64-3.53,4.7-2.58,11.3-6.18A.1.1,0,1,0,238.55,294.74Z" style="fill:#37474f"></path><path d="M201.32,311.15c-7.81-6.88-33.38-29.28-34.42-30.11a13.93,13.93,0,0,0-2.66-2,2.81,2.81,0,0,0-2.46.2c-1.18.55-2.34,1.16-3.51,1.73l-6.92,3.38c-8.95,4.36-17.84,8.84-26.85,13.06-8.67,4.06-14.85,7.88-23.91,11A136.54,136.54,0,0,1,72.83,315c-1.17.14-2.34.26-3.51.37-.09,0-.08.14,0,.13a111.54,111.54,0,0,0,27.33-5.08c9-2.76,15-6.34,23.57-10.26,8.83-4.06,17.53-8.4,26.23-12.73,4.59-2.28,9.17-4.58,13.78-6.84,1.05-.51,2.53-1.62,3.73-1.07a6.73,6.73,0,0,1,1.37,1l1.53,1.28c2,1.64,33.32,28.64,34.35,29.42C201.29,311.32,201.39,311.22,201.32,311.15Z" style="fill:#37474f"></path><path d="M44.33,290.13s-4.77,27.59,9,38.44,114.9,9.53,130.25,4.58,15.82-29.72-1-35.45c-15.95-5.46-83.81-8.11-85.49-8.78-.42-.17,6-4,6-4.26l-15.44-4.72Z" style="fill:#263238"></path><path d="M65.28,289.43c0-.12-.2-.08-.2,0a13.65,13.65,0,0,1-3.19,8.77c-2.35,2.71-5.82,4.23-9,5.82-.31.15-.08.62.24.53a27.67,27.67,0,0,0,5.54-2.39,13.52,13.52,0,0,0,4.17-3.46A11.93,11.93,0,0,0,65.28,289.43Z" style="fill:#37474f"></path><path d="M96.06,286c-.7-.89-1.46-1.74-2.19-2.61-1.73-2.06-3.47-4.13-5.28-6.11-.17-.19-.51.08-.35.28,1.22,1.6,2.51,3.14,3.78,4.7l2,2.38A15.12,15.12,0,0,1,95.82,287c.47.89-.15,1.64-1.07,1.74a3.19,3.19,0,0,1-2.21-.81,29.53,29.53,0,0,1-3.74-4l-2.19-2.45c-.79-.86-1.63-1.67-2.41-2.53,0-.06-.15,0-.1.08.68.94,1.31,1.92,2,2.86s1.38,1.87,2.09,2.8,1.36,1.73,2.07,2.57a8.79,8.79,0,0,0,2.11,1.88c1.32.77,3.59.94,4.29-.75A2.38,2.38,0,0,0,96.06,286Z" style="fill:#37474f"></path><path d="M181.51,333.24c-5.29.1-10.56.4-15.85.52s-10.48.14-15.72.09q-15.78-.15-31.54-1.23c-10.61-.73-22.06-1.79-32.6-3.25-5-.7-10.16-1.28-15.14-2.35a24,24,0,0,1-11.94-6.1c-6.83-6.62-9.48-16.36-10.57-25.66-.15-1.25-.27-2.5-.37-3.75a.07.07,0,0,0-.13,0c.62,9.53,2.1,19.47,8.1,27.14a23.78,23.78,0,0,0,9.77,7.59c4.72,1.89,10,2.33,14.94,3,10.58,1.43,22.07,2.54,32.72,3.37s21.45,1.35,32.19,1.5,21.49,0,32.22-.52c1.31-.06,2.61-.14,3.92-.25C181.58,333.35,181.58,333.24,181.51,333.24Z" style="fill:#37474f"></path><path d="M148.21,292.67c-3.33-.49-6.65-1-10-1.32s-6.76-.65-10.14-.94c-6.69-.56-13.39-1.07-20.1-1.38-3.81-.18-7.62-.2-11.43-.15-.12,0-.11.17,0,.18,6.71.61,13.42,1,20.13,1.48s13.4,1,20.09,1.67c3.79.36,7.58.64,11.38,1C148.43,293.18,148.48,292.71,148.21,292.67Z" style="fill:#37474f"></path><path d="M104,284.32a52.22,52.22,0,0,0-7.7,4.12,62.72,62.72,0,0,0-7.12,5c-.06.05,0,.13.08.1,2.61-1.21,5.12-2.72,7.61-4.17a72.22,72.22,0,0,0,7.29-4.68C104.27,284.56,104.17,284.23,104,284.32Z" style="fill:#37474f"></path><path d="M104.88,223.26a.45.45,0,0,1-.3.5l-1.76.31c-2-3.95-4.13-7-3.54-5.81a21.1,21.1,0,0,1,1.81,6.11l-3.48.57c-2.19-7.12-4.56-12.32-4.27-10.67,1.2,6.67,1,8.87.84,11.23-8.4,1.34-19.43,3-27.43,4-1.37-3.92-2.67-8.18-2.78-7.86a21.07,21.07,0,0,0-.5,8.27c-2.55.3-4.59.5-5.84.56,0,0-1-3.32-1.19-4.42a23.51,23.51,0,0,1-.06-8.57,42.11,42.11,0,0,1,2.82-8.28l0-.06v0a23.87,23.87,0,0,0,1.54-5.48s0,0,0,0a23.64,23.64,0,0,0,.21-4.1c-.19-5,2.12-9.62,6.64-11.46,7.89-9.3,17.11-6.81,20.5-.74.33.59.65,1.28,1,2v0c1.23,2.77,2.46,6.4,3.53,9.2,0,0,0,0,0,0s0,0,0,0h0a28.28,28.28,0,0,0,1.42,3.21C96.91,206.72,102.33,209.09,104.88,223.26Z" style="fill:#263238"></path><path d="M65.76,189.62a9.43,9.43,0,0,0-4.56,8.17,24.31,24.31,0,0,1-.54,6.31,22,22,0,0,1-2.91,5.83,16.07,16.07,0,0,0-3,9.36,27.33,27.33,0,0,0,2.31,11.13s0,0,0,0a29.16,29.16,0,0,1-1.72-11.69c.22-4,2.17-6.74,4.11-10a16.42,16.42,0,0,0,2.45-8.41c0-1.82-.21-3.68.32-5.45A10.81,10.81,0,0,1,66,190,.21.21,0,0,0,65.76,189.62Z" style="fill:#263238"></path><path d="M99.86,206.77c-2.48-2.58-5-4.72-6.66-8.07-1.51-3.06-2.55-6.35-4.08-9.4,0,0-.1,0-.08,0,2.45,5.44,3.44,11.1,7.62,15.44,2.28,2.35,4.53,4.52,6.18,7.47a27.64,27.64,0,0,1,3.2,10,.09.09,0,0,0,.18,0A23,23,0,0,0,99.86,206.77Z" style="fill:#263238"></path><path d="M66.38,189c.84-2.25-1.59-7.57-5.14-8.77-4.9-1.65-10,5.52-6.13,9.82S65.72,190.77,66.38,189Z" style="fill:#263238"></path><path d="M54.51,183.56A10.35,10.35,0,0,1,58,180a4.1,4.1,0,0,1,2.27-.54,4.21,4.21,0,0,1,2.16.85A9.49,9.49,0,0,1,64.19,182a11.3,11.3,0,0,1,1.35,2.09,8.6,8.6,0,0,1,.84,4.91,7.44,7.44,0,0,0-.24-5.17,10.23,10.23,0,0,0-1.32-2.32,9.49,9.49,0,0,0-1.89-1.91,4.69,4.69,0,0,0-2.6-1,4.52,4.52,0,0,0-2.64.77A8.63,8.63,0,0,0,54.51,183.56Z" style="fill:#263238"></path><path d="M78.16,185.35c2.2.41,6.68-2.67,7.2-6.11.72-4.75-6.67-8.29-10-4S76.47,185,78.16,185.35Z" style="fill:#263238"></path><path d="M81.25,173.61a9.58,9.58,0,0,1,3.83,2.64,3.76,3.76,0,0,1,.87,2,3.85,3.85,0,0,1-.43,2.11,8.72,8.72,0,0,1-1.31,1.88,10,10,0,0,1-1.69,1.56,7.85,7.85,0,0,1-4.36,1.56,6.85,6.85,0,0,0,4.7-1,9.28,9.28,0,0,0,1.9-1.58,8.92,8.92,0,0,0,1.45-2,4.5,4.5,0,0,0,.46-2.54,4.19,4.19,0,0,0-1.13-2.29A8,8,0,0,0,81.25,173.61Z" style="fill:#263238"></path><path d="M81.14,237.7c5,9.17,21.39,35.41,31.78,36.39,6.82.64,33.88-3.73,37.73-8.85,2.07-2.76-3.39-21.48-6.88-20.28s-23,6-25.76,5.55-25.3-20.88-33.38-25.66C70.69,216.62,78.43,232.76,81.14,237.7Z" style="fill:#d3766a"></path><path d="M87.56,249.51l9.3-16.29s-9.93-7.67-16.31-10.74c-3.58-1.71-5.74.24-4.67,3.67C79.6,238.13,87.56,249.51,87.56,249.51Z" style="fill:#c7c7c7"></path><path d="M94.46,237.42l-6.9,12.09s-8-11.38-11.68-23.37a4.16,4.16,0,0,1,0-2.85Z" style="fill:#a6a6a6"></path><path d="M93.56,232.49A119,119,0,0,0,86,245.83s.09.09.1.07c2.28-3.52,6.3-10.86,7.63-13.32C93.73,232.53,93.59,232.45,93.56,232.49Z" style="fill:#263238"></path><path d="M43.29,290.65l55.09-10.58-4.17-19.92s4.67-5.88,3.2-11.85c-1.32-5.32-12.75-21.6-15.12-23.82-4.08-3.81-11.67-5.46-16.16-.77C47.6,243.06,43.29,290.65,43.29,290.65Z" style="fill:#c7c7c7"></path><path d="M98.38,280.07,43.29,290.65s.06-.63.19-1.78c0-.17,0-.35.06-.55.14-1.22.35-2.89.64-4.9,0-.18,0-.37.08-.56.22-1.48.47-3.14.77-4.93,0-.19.07-.37.1-.56.27-1.56.57-3.21.91-4.95,0-.18.07-.37.11-.56.32-1.6.67-3.27,1.05-5,0-.18.08-.37.13-.56.37-1.64.77-3.32,1.2-5l.15-.57c.43-1.66.89-3.35,1.39-5,0-.19.11-.38.16-.57.51-1.69,1.05-3.4,1.62-5.09.07-.2.13-.39.2-.58.59-1.73,1.22-3.45,1.89-5.14.07-.19.15-.38.23-.58q1.06-2.65,2.27-5.21l.28-.6c.89-1.84,1.84-3.62,2.84-5.32q.16-.3.36-.6a50.77,50.77,0,0,1,3.79-5.5l.5-.63q.93-1.12,1.92-2.16c3.79-4,9.8-3.4,14-.84l.64.42a11.78,11.78,0,0,1,1.49,1.19,28.43,28.43,0,0,1,2.39,2.87l.36.47c.91,1.21,1.95,2.66,3,4.22.1.16.21.31.33.47.94,1.36,1.91,2.81,2.83,4.26.11.16.22.32.31.48.94,1.46,1.84,2.91,2.63,4.29.1.16.2.32.28.48a43.3,43.3,0,0,1,2.26,4.37c.08.17.15.34.21.5a9.83,9.83,0,0,1,.48,1.41,10.49,10.49,0,0,1,.26,3.23,5.14,5.14,0,0,1-.06.55A15.88,15.88,0,0,1,96,257.16l-.31.6a16.88,16.88,0,0,1-1.52,2.39l.54,2.58.11.52,1,4.6.11.52,1,4.61.11.51,1,4.61.11.52Z" style="fill:#c7c7c7"></path><path d="M98.08,278.62l-54.6,10.25c0-.17,0-.35.06-.55L98,278.1ZM96.89,273l-52.63,9.88c0,.19,0,.38-.08.56L97,273.49Zm-1.07-5.13-50.69,9.52c0,.19-.06.37-.1.56l50.9-9.56Zm-1.07-5.12-48.6,9.13c0,.19-.07.38-.11.56l48.82-9.17Zm-47.42,3.58c0,.19-.09.38-.13.56l48.53-9.11.31-.6Zm1.35-5.58-.15.57,49.08-9.22a5.14,5.14,0,0,0,.06-.55Zm48-14.34-46.49,8.73c0,.19-.11.38-.16.57l46.86-8.8C96.87,246.73,96.8,246.56,96.72,246.39Zm-2.54-4.85-42.13,7.91c-.07.19-.13.38-.2.58l42.61-8C94.38,241.86,94.28,241.7,94.18,241.54Zm-2.94-4.77-37.07,7c-.08.2-.16.39-.23.58l37.61-7.06C91.46,237.09,91.35,236.93,91.24,236.77ZM88.08,232l-31.36,5.88-.28.6,32-6C88.29,232.35,88.18,232.2,88.08,232Zm-3.4-4.69L59.92,232q-.2.3-.36.6L85,227.82Zm-4.52-4.48-16,3-.5.63,17.09-3.21Z" style="fill:#fff"></path><path d="M86.37,257.1A53.57,53.57,0,0,0,79,259.92c-1.18.57-2.33,1.2-3.47,1.85-.56.32-1.14.63-1.72.93a8.16,8.16,0,0,1-1.89.77,0,0,0,1,0,0,.09,13.9,13.9,0,0,0,1.89-.42,14.44,14.44,0,0,0,1.74-.71c1.2-.57,2.37-1.19,3.57-1.78,2.41-1.17,4.83-2.35,7.32-3.35C86.56,257.26,86.48,257.06,86.37,257.1Z" style="fill:#263238"></path><path d="M93.2,258.08a58,58,0,0,0-6.45,1c-1.07.23-2.11.52-3.15.84-.5.15-1,.31-1.49.48s-1.06.44-1.6.62c-.06,0,0,.11,0,.09.52-.15,1.06-.22,1.59-.34l1.58-.36,3.18-.73c2.11-.51,4.22-1,6.35-1.43C93.35,258.23,93.31,258.07,93.2,258.08Z" style="fill:#263238"></path><path d="M137.5,266.5c-2.38-2,3.45-20.61,6.42-21.75.56-.21,1.38-.5,3.17-1.31h0a45,45,0,0,0,11-7.15c3.83-3.6,9.09-9.38,11.1-7.4,2.95,2.88-2.83,11-6.43,15.45,3.07.52,5.66,1.25,7,2.23,4.5,3.26-7.5,25.2-13.14,25.47C151.21,272.3,139.88,268.47,137.5,266.5Z" style="fill:#d3766a"></path><path d="M116,277.63c-.51-1.77-3.41-10.25-10.44-9.84-8.79.52-10.62,7-14.66,9.85-7.91,5.52-26.56-.44-38.19,11s-5.3,28,1.18,37.25S73.5,347.39,86.5,342c12.62-5.24,13.57-17.2,19.35-22.38,5.26-4.73,23.43-10.11,23.54-18.35.08-5.5-5.54-3.44-7.72-5.68s-.43-5.12-.44-6.5C121.2,286,116,277.63,116,277.63Z" style="fill:#FF7697"></path><path d="M91.73,307.14l7.39-5.61a9.48,9.48,0,0,0,8.25-.62c3.93-2.5,3.8-7.29,3.8-7.29l1.75-1.09a8.84,8.84,0,0,1,2.21,4.44c1,5.38-6.4,20.4-16.15,19.55C91.35,315.86,91.73,307.14,91.73,307.14Z" style="opacity:0.1"></path><path d="M111,290.67a8.79,8.79,0,1,1-11.41-4.91A8.79,8.79,0,0,1,111,290.67Z" style="fill:#FF7697"></path><path d="M111,290.67a8.79,8.79,0,1,1-11.41-4.91A8.79,8.79,0,0,1,111,290.67Z" style="opacity:0.30000000000000004"></path><path d="M109.05,291.46a6.66,6.66,0,1,1-8.66-3.73A6.66,6.66,0,0,1,109.05,291.46Z" style="fill:#263238"></path><polygon points="183.66 233.41 187.6 239.06 111.47 295.51 104.33 285.29 183.66 233.41" style="fill:#c7c7c7"></polygon><rect x="185.25" y="225.52" width="1.05" height="2.81" transform="translate(470.74 296.22) rotate(142.97)" style="fill:#263238"></rect><rect x="183.88" y="224.05" width="2.1" height="3.51" transform="translate(253.85 -57.81) rotate(52.98)" style="fill:#263238"></rect><rect x="189.32" y="222.47" width="1.05" height="2.81" transform="translate(476.22 288.31) rotate(142.98)" style="fill:#263238"></rect><rect x="187.95" y="221" width="2.1" height="3.51" transform="translate(253.01 -62.28) rotate(52.97)" style="fill:#263238"></rect><rect x="193.39" y="219.43" width="1.05" height="2.81" transform="translate(481.71 280.4) rotate(142.98)" style="fill:#263238"></rect><rect x="192.02" y="217.96" width="2.1" height="3.51" transform="translate(252.2 -66.74) rotate(52.97)" style="fill:#263238"></rect><rect x="193.15" y="238.25" width="1.05" height="2.81" transform="translate(474.15 367.23) rotate(153.4)" style="fill:#263238"></rect><rect x="193.25" y="239.16" width="2.1" height="3.51" transform="translate(65.91 522.53) rotate(-116.6)" style="fill:#263238"></rect><rect x="197.68" y="235.96" width="1.05" height="2.81" transform="translate(481.71 360.86) rotate(153.4)" style="fill:#263238"></rect><rect x="197.79" y="236.87" width="2.1" height="3.51" transform="translate(74.51 523.25) rotate(-116.6)" style="fill:#263238"></rect><rect x="202.22" y="233.66" width="1.05" height="2.81" transform="translate(489.28 354.5) rotate(153.41)" style="fill:#263238"></rect><rect x="202.33" y="234.57" width="2.1" height="3.51" transform="translate(83.16 524) rotate(-116.61)" style="fill:#263238"></rect><path d="M206.81,227.15l-4-6.43s-2.22,1-5.78-1.05L184.09,229l-1.39,3.34,4.75,7.66,3.61.24,14.11-7.46C204.93,228.71,206.81,227.15,206.81,227.15Zm-19.52,5.62-.95-1.55,12.39-7.69,1,1.55Zm2.79,4.48-1-1.55L201.5,228l1,1.55Z" style="fill:#FF7697"></path><path d="M77.22,304.72l13.39-9,13.42-9,26.86-17.92,27-17.8c9-5.92,18-11.87,27-17.73l0,0,1.47-5.87-1.38,5.89v0h0c-8.91,6.05-17.87,12-26.82,18l-26.87,17.91-27,17.78L90.75,295.9Z" style="fill:#263238"></path><path d="M78.52,306.58l13.38-9.16,13.43-9.1,26.86-18.19c9-6.06,18-12,26.95-18.06s18-12.06,27-18l0,0,4.06-9.45-3.92,9.51v0l0,0c-8.91,6.12-17.89,12.14-26.84,18.21s-17.89,12.15-26.88,18.17l-26.95,18-13.49,9Z" style="fill:#263238"></path><path d="M195.18,221.64,187,234.81v0l0,0-26.75,18.46c-8.93,6.14-17.82,12.34-26.78,18.43l-26.85,18.32-13.43,9.15L79.72,308.3,93.06,299l13.37-9.24,26.75-18.45c8.91-6.17,17.89-12.23,26.83-18.35l26.86-18.31,0,0Z" style="fill:#263238"></path><path d="M81,310.16l13.27-9.45,13.31-9.4,26.64-18.78c8.86-6.27,17.8-12.44,26.7-18.67l26.74-18.62,0,0h0l14.56-1.46-14.53,1.67h.05l-26.62,18.79c-8.89,6.24-17.74,12.55-26.66,18.74l-26.73,18.64L94.37,300.9Z" style="fill:#263238"></path><path d="M197.85,236.46l-10.23,0h0c-8.72,6.38-17.52,12.65-26.27,19l-26.31,18.93-26.4,18.82-13.2,9.4L82.24,311.9l13.1-9.54,13.14-9.49,26.29-18.95,26.38-18.84c8.81-6.26,17.58-12.58,26.42-18.79h.05Z" style="fill:#263238"></path><path d="M83.49,313.7l13-9.58,13-9.51,26.05-19,26.16-18.89c8.72-6.29,17.42-12.6,26.19-18.83h0l5.68,1.33-5.7-1.24h0c-8.64,6.4-17.34,12.72-26,19.06l-26.06,19L109.7,294.89l-13.08,9.44Z" style="fill:#263238"></path><rect x="74.71" y="306.24" width="14.45" height="3.81" transform="translate(287.67 64.54) rotate(55.07)" style="fill:#fff"></rect><path d="M161.86,242.93c-2.39,1.61.88,3.51.88,3.51s-5.37-1.6-7.2,1,2.28,4.69,2.56,4.85c-.28-.09-5.25-1.43-6.82,1.39s2.79,4.4,3.08,4.49c-.29,0-4.17.16-4.87,2.57-1.21,4.15,8.71,4,11.1,6.58,0,0-3.85,4.55-3.93,4.7s9.44.09,12.69-3.34a3,3,0,0,0,.37-3.76s3,.37,4.35-1.81c.66-1.12-.54-3.19-.54-3.19a3.78,3.78,0,0,0,3.49-1.82c.83-1.6-.5-3.42-.5-3.42s2.43-.91,2.75-2.82C179.93,248,167,239.49,161.86,242.93Z" style="fill:#d3766a"></path><path d="M176.35,254.37s.1,0,.06-.06a26.86,26.86,0,0,0-13.84-8c-.17,0-.3.23-.12.3A55.27,55.27,0,0,1,176.35,254.37Z" style="fill:#263238"></path><path d="M173.62,260s.11,0,.06-.09A25.18,25.18,0,0,0,158,252.08c-.21,0-.41.18-.17.22C161.9,252.92,169.69,256.85,173.62,260Z" style="fill:#263238"></path><path d="M153.92,258.3c5.84.68,10.86,3.17,15.66,6.46.06,0,.12-.05.07-.1-1.9-2.25-5.18-4-7.85-5.2a15.52,15.52,0,0,0-7.85-1.37C153.84,258.1,153.8,258.28,153.92,258.3Z" style="fill:#263238"></path><path d="M162.69,246.35c-.2,0,0,.3-.24.27-.86-.14-6.12-.55-6.82,1.2-.55,1.41,1,3.12,1.79,3.56l2.1,1.09-2.36-.3a9.67,9.67,0,0,0-3.13.1,3.47,3.47,0,0,0-2.41,1.5,2,2,0,0,0,.25,2.47,6,6,0,0,0,2.61,1.49l2.68.82-2.79.1a9.36,9.36,0,0,0-2.29.37,3.81,3.81,0,0,0-1.86,1.12A1.77,1.77,0,0,0,150,262a3.89,3.89,0,0,0,1.65,1.46,31.59,31.59,0,0,0,4.53,1.78c.78.26,1.56.53,2.32.84a5.68,5.68,0,0,1,2.12,1.25,6.14,6.14,0,0,0-2.19-1c-.78-.24-1.58-.45-2.37-.66a25.88,25.88,0,0,1-4.72-1.57,4.56,4.56,0,0,1-2-1.68,2.52,2.52,0,0,1,.27-2.76,4.55,4.55,0,0,1,2.26-1.45,10.05,10.05,0,0,1,2.55-.46l-.11.93a6.9,6.9,0,0,1-3.1-1.73,2.92,2.92,0,0,1-.81-1.76,3.29,3.29,0,0,1,.47-1.86,4.36,4.36,0,0,1,3-1.9,10.52,10.52,0,0,1,3.45,0l-.25.8c-1.05-.59-2.94-2.33-2.35-4.61C155.91,244.66,161.66,246,162.69,246.35Z" style="fill:#263238"></path><path d="M162.74,246.44a5.65,5.65,0,0,1-1.14-1.36,1.33,1.33,0,0,1,0-1.36,2.68,2.68,0,0,1,1.23-.93c.54-.23,1.11-.45,1.71-.65a4.74,4.74,0,0,0-1.91.05,2.74,2.74,0,0,0-1.73,1.13,1.86,1.86,0,0,0-.22,1.13,2,2,0,0,0,.45,1A3.07,3.07,0,0,0,162.74,246.44Z" style="fill:#263238"></path><path d="M60.31,233.45c-9.14,22.42-15.9,46.9-11.79,56.45,2.16,5,28.33,16,38.66,17.61,3.32.53,11.18-25.14,7.79-26.34-7.47-2.62-24.63-6.61-26.44-7.31-.88-.34,2.66-25,2.27-39.14C70.56,225.94,66,219.61,60.31,233.45Z" style="fill:#d3766a"></path><path d="M125.15,289.27c-1.08,3.07-2.7,2.88-2.7,2.88a6,6,0,0,1,1.08,3.94c-.31,2.46-4.29,3-4.29,3a7.42,7.42,0,0,1,.47,4.34c-.53,2.32-4.47,3.49-4.47,3.49a6.52,6.52,0,0,1-2,4.08c-3.13,2.75-18.56-.36-29.28-4.69L90.33,280s19.74-3.23,24.13-1.26C118.15,280.43,126.38,285.74,125.15,289.27Z" style="fill:#d3766a"></path><path d="M122.42,292a54.21,54.21,0,0,0-11.68-6.31.08.08,0,0,0-.06.14c4,1.69,7.69,4.5,11.64,6.35A.1.1,0,0,0,122.42,292Z" style="fill:#263238"></path><path d="M119.25,298.78a11.79,11.79,0,0,0-2.75-1.25c-1-.38-2-.74-3-1.08-2-.69-4.08-1.34-6.14-1.92-.09,0-.15.11-.06.14,2,.69,4,1.41,6,2.19l3,1.18a13.25,13.25,0,0,0,2.85,1A.15.15,0,0,0,119.25,298.78Z" style="fill:#263238"></path><path d="M115.16,306.93a8.12,8.12,0,0,0-2.54-1l-2.78-.9c-1.86-.61-3.71-1.22-5.55-1.9-.09,0-.15.11-.06.14,1.86.7,3.71,1.42,5.58,2.09.91.34,1.83.67,2.75,1a7.52,7.52,0,0,0,2.57.67A.05.05,0,0,0,115.16,306.93Z" style="fill:#263238"></path><path d="M52.82,247.86l18.68-1.68s.62-12.53-.51-19.52c-.64-3.92-3.48-4.57-5.68-1.74C57.61,234.82,52.82,247.86,52.82,247.86Z" style="fill:#c7c7c7"></path><path d="M70.21,243.05a120.59,120.59,0,0,0-15.29,1.4s0,.12,0,.12c4.19-.14,12.51-1,15.29-1.35C70.27,243.22,70.26,243.05,70.21,243.05Z" style="fill:#263238"></path><path d="M70.43,246.27a4.84,4.84,0,0,0,1-.12,12.3,12.3,0,0,0,.12-2.11c0-1.16,0-2.32,0-3.47,0-2.31.1-4.61.17-6.92,0-.06.11-.07.11,0,.09,1.14.16,2.26.22,3.39a.17.17,0,0,1,0-.07c.07-.52.15-1,.23-1.56,0,0,.07,0,.07,0-.06.52-.11,1-.17,1.56,0,.29-.07.57-.11.86,0,1.18.07,2.36,0,3.54s0,4.85-.34,5.06a12.17,12.17,0,0,1-1.28,0C70.37,246.41,70.34,246.27,70.43,246.27Z" style="fill:#263238"></path><path d="M71.13,224.23c.36,1,6,6.78,10.49,6,1.47-.27.35-8.36.35-8.36l.06-.62.75-8.62-10.68-5L70.57,207S71,223.82,71.13,224.23Z" style="fill:#d3766a"></path><path d="M70.57,207s.13,5.19.26,9.88c4.45,3,10.14,2.54,11.37,2.39l.58-6.63-10.68-5Z" style="fill:#263238"></path><path d="M93.58,199.39c2.88,14.91-5.73,18.32-8.94,18.94-2.92.56-12.94,2.11-17.35-12.43s1.61-20.6,8.22-22.24S90.69,184.47,93.58,199.39Z" style="fill:#d3766a"></path><path d="M91.06,197.37a9.3,9.3,0,0,1-1-.15,1.73,1.73,0,0,1-1-.35.56.56,0,0,1,0-.66,1.35,1.35,0,0,1,1.3-.4,2,2,0,0,1,1.28.61A.58.58,0,0,1,91.06,197.37Z" style="fill:#263238"></path><path d="M80.8,198.47c.35-.08.66-.21,1-.32a1.69,1.69,0,0,0,1-.52.54.54,0,0,0-.07-.66,1.34,1.34,0,0,0-1.34-.18,2,2,0,0,0-1.16.82A.58.58,0,0,0,80.8,198.47Z" style="fill:#263238"></path><path d="M83.54,201.48s-.07.06-.07.1c.16,1,.18,2.22-.71,2.68,0,0,0,.06,0,.05C83.89,204,83.86,202.42,83.54,201.48Z" style="fill:#263238"></path><path d="M82.49,200.52c-1.67.09-1.38,3.41.17,3.34S83.88,200.45,82.49,200.52Z" style="fill:#263238"></path><path d="M81.85,200.76c-.27.21-.53.57-.88.63s-.74-.24-1-.56c0,0-.06,0,0,0,0,.64.34,1.27,1,1.3s1-.57,1.13-1.22C82.08,200.84,82,200.67,81.85,200.76Z" style="fill:#263238"></path><path d="M89.42,200.59s.08,0,.08.08c0,1,.2,2.22,1.15,2.53,0,0,0,.06,0,.05C89.49,203.14,89.26,201.57,89.42,200.59Z" style="fill:#263238"></path><path d="M90.3,199.47c1.65-.2,1.92,3.13.39,3.31S88.91,199.63,90.3,199.47Z" style="fill:#263238"></path><path d="M91,199.63c.28.16.56.46.88.45s.6-.39.81-.75c0,0,0,0,0,0,.07.64-.08,1.32-.69,1.49s-1-.36-1.2-1C90.82,199.75,90.9,199.57,91,199.63Z" style="fill:#263238"></path><path d="M84,210.15c.25.25.5.58.88.61a2.71,2.71,0,0,0,1.11-.27s.06,0,0,.06a1.41,1.41,0,0,1-1.31.56,1.1,1.1,0,0,1-.82-.91C83.92,210.14,84,210.12,84,210.15Z" style="fill:#263238"></path><path d="M88.43,205.91a22.79,22.79,0,0,1,.35,2.26c0,.07-.17.11-.41.14h0a3.47,3.47,0,0,1-3.44-1.08.08.08,0,0,1,.1-.11,5.23,5.23,0,0,0,3.22.71c0-.2-.62-2.6-.5-2.61a6.23,6.23,0,0,1,1.67.27c-.55-3.21-1.6-6.29-2.1-9.49,0-.12.15-.16.18-.06a53.12,53.12,0,0,1,2.71,10.12C90.26,206.48,88.73,206,88.43,205.91Z" style="fill:#263238"></path><path d="M87.9,208.25a4,4,0,0,1-1.55,1.25,1.74,1.74,0,0,1-1.06.09c-.78-.19-.82-.9-.69-1.51a4,4,0,0,1,.33-.94A5,5,0,0,0,87.9,208.25Z" style="fill:#263238"></path><path d="M86.35,209.5a1.74,1.74,0,0,1-1.06.09c-.78-.19-.82-.9-.69-1.51A1.81,1.81,0,0,1,86.35,209.5Z" style="fill:#ff99ba"></path><path d="M69.48,207.18c2.83-.25,2.19-6.71,2.19-6.71s9.4-2.85,10.12-13A18.57,18.57,0,0,0,92,193.29s-2.66-10.39-11.4-10.64c0,0-11.11-1.54-15.16,7.88S67.58,207.34,69.48,207.18Z" style="fill:#263238"></path><path d="M81.64,186.73a10.66,10.66,0,0,1,.06,4.5A11.19,11.19,0,0,1,80,195.44a9.9,9.9,0,0,1-.69.91l-.36.44-.41.4c-.28.26-.55.53-.84.78s-.61.45-.92.67l-.47.32-.5.28-1,.54c-.69.29-1.4.55-2.1.8.64-.39,1.31-.71,1.94-1.1l.92-.61.46-.3c.15-.11.28-.23.43-.35s.55-.47.84-.7.51-.52.77-.78l.38-.38.33-.43a9.37,9.37,0,0,0,.65-.87,12.69,12.69,0,0,0,1.78-3.95,13,13,0,0,0,.39-2.16A12.62,12.62,0,0,0,81.64,186.73Z" style="fill:#263238"></path><polygon points="69.72 197.26 68.73 198.6 67.08 198.55 68.05 199.9 67.48 201.46 69.07 200.96 70.38 201.97 70.39 200.31 71.76 199.38 70.18 198.86 69.72 197.26" style="fill:#FF7697"></polygon><polygon points="71.89 193.26 71.36 194.5 70.03 194.77 71.05 195.66 70.9 197 72.06 196.31 73.29 196.88 72.99 195.56 73.9 194.56 72.56 194.44 71.89 193.26" style="fill:#FF7697"></polygon><path d="M70.88,206.58s-3.79-4.37-5.81-3,1.18,8,3.79,8.65a2.56,2.56,0,0,0,3.28-1.73Z" style="fill:#d3766a"></path><path d="M66,205.48a0,0,0,0,0,0,.07c1.84.52,2.94,2.06,3.76,3.69a1.42,1.42,0,0,0-2.15-.17.06.06,0,0,0,.06.09,1.58,1.58,0,0,1,1.79.37,7.94,7.94,0,0,1,1,1.31c.1.15.38,0,.3-.14l0,0C70.55,208.41,68.47,205.45,66,205.48Z" style="fill:#263238"></path></g><g id="freepik--character-2--inject-66"><path d="M445.05,329.49v58.05L257.92,368.07c-5.67-.56-9.43-12.71-9.43-22.37s4.59-17.45,10.26-17.42Z" style="fill:#FF7697"></path><path d="M445.05,329.49v58.05L257.92,368.07c-5.67-.56-9.43-12.71-9.43-22.37s4.59-17.45,10.26-17.42Z" style="opacity:0.5"></path><path d="M429.76,357.82c0,15.68,6.85,28.95,15.29,29.65s15.28-12,15.28-28.32-6.84-29.63-15.28-29.66S429.76,342.14,429.76,357.82Z" style="fill:#FF7697"></path><path d="M429.76,357.82c0,15.68,6.85,28.95,15.29,29.65s15.28-12,15.28-28.32-6.84-29.63-15.28-29.66S429.76,342.14,429.76,357.82Z" style="opacity:0.2"></path><g style="opacity:0.1"><polygon points="257.12 332.09 281.35 332.15 305.57 332.3 330.99 332.71 379.45 333.34 403.67 333.75 427.9 334.28 403.67 334.26 379.45 334.12 330.99 333.66 305.57 332.98 281.35 332.58 257.12 332.09"></polygon><path d="M359.05,345.87c5.74-.05,11.47,0,17.21.07s11.48.22,17.21.32,11.48.34,17.22.57l8.6.37c2.87.16,5.74.29,8.61.49-2.87,0-5.74,0-8.61,0l-8.6-.08c-5.74-.07-11.48-.23-17.22-.35s-11.47-.34-17.21-.58S364.79,346.23,359.05,345.87Z"></path><path d="M277,338.06c7.82,0,15.64,0,23.46.11l.42.34,23.46.55,11.72.35,11.73.46H336l-11.72-.1-23.46-.36-.42-.57C292.6,338.63,284.78,338.39,277,338.06Z"></path><path d="M271.5,351.07c8.74.34,17.47.77,26.21,1.23l3.16,1.49,26.19,1.75,13.09,1,13.09,1.09-13.1-.62L327,356.27l-26.19-1.56L297.68,353C289,352.37,280.23,351.76,271.5,351.07Z"></path><path d="M318.31,365c10.47.82-2.1,1.75,8.37,2.71l31.39,3,31.38,3.39,15.68,1.82,15.68,2-15.7-1.46-15.7-1.55L358,371.69l-31.38-3.31C316.18,367.27,328.76,366.15,318.31,365Z"></path><path d="M338.47,362.74c7.52.32,15,.75,22.56,1.19l22.55,1.47,22.55,1.73,11.27,1c3.76.36,7.52.69,11.27,1.08-3.76-.15-7.52-.38-11.28-.57l-11.28-.68-22.55-1.51L361,364.69C353.5,364.08,346,363.46,338.47,362.74Z"></path><path d="M258.69,346.05c6.61,0,13.22.15,19.82.29s13.22.34,19.83.51,36.28.59,42.88.87L305,348c3.3.17,6.61.32,9.91.53-3.3,0-6.61,0-9.91-.08l13.12-.19c-6.61-.14-13.21-.35-19.82-.53s-13.22-.45-19.83-.73S265.3,346.43,258.69,346.05Z"></path><path d="M368.67,358.23a76.94,76.94,0,0,1,9.36-.12,76,76,0,0,1,9.36.89,76.94,76.94,0,0,1-9.36.12A80.07,80.07,0,0,1,368.67,358.23Z"></path><path d="M278.49,360.71a91.53,91.53,0,0,1,9.37,0,87.18,87.18,0,0,1,9.36.91,86,86,0,0,1-9.36,0A89.74,89.74,0,0,1,278.49,360.71Z"></path></g><path d="M370.86,231c-19.66,25.85-46.78,68.84-50.42,76.48-2.48,5.19,24.65,18.87,25.8,15.09,1.48-4.83,25.3-53.6,31.26-82.42C380.11,227.56,374.51,226.22,370.86,231Z" style="fill:#eb9481"></path><path d="M347.52,319c-.95,2.58-4.17,13.56-6.42,14.93S327,335,321.07,335s-7.13-1.66-7-3.71,12.61-2.44,12.61-2.44-16.7,4.78-20.9,5.56-13.88,3.23-15.28-.26c-.63-1.57,2-3.15,2-3.15s-4.06,1.18-4.71-.84c-.73-2.3,2.49-3.56,2.49-3.56s-2.53.51-2.59-1.36c-.13-4.19,15.75-6.24,15.75-6.24s-12.16,5.92-12.55,2.5c-.54-4.72,24.38-9.91,27-12a17.6,17.6,0,0,0,4.16-5.13Z" style="fill:#eb9481"></path><path d="M314.12,332.36a1.85,1.85,0,0,1,.57-1.6,5.24,5.24,0,0,1,1.45-.94,19.53,19.53,0,0,1,3.42-1.11c2.34-.59,4.75-1,7.15-1.63a29,29,0,0,0-7.36.82,13.41,13.41,0,0,0-3.51,1.35,4.79,4.79,0,0,0-1.47,1.26A1.91,1.91,0,0,0,314.12,332.36Z" style="fill:#263238"></path><path d="M292.48,331c1.72-.42,3.41-.91,5.1-1.4s3.37-1,5.05-1.51l5-1.58,5-1.55a38.56,38.56,0,0,0-5.22.93c-1.72.39-3.41.89-5.1,1.4s-3.36,1.08-5,1.7S294.08,330.28,292.48,331Z" style="fill:#263238"></path><path d="M308.68,320.82a32.69,32.69,0,0,0-4.82.67,46.18,46.18,0,0,0-9.27,2.91,35.41,35.41,0,0,0-4.33,2.23c1.54-.53,3-1.12,4.56-1.63s3-1,4.58-1.5,3.07-.94,4.61-1.39S307.11,321.24,308.68,320.82Z" style="fill:#263238"></path><path d="M306.22,316.83a30.15,30.15,0,0,0-7.67,1.62,29.84,29.84,0,0,0-7.05,3.42c2.47-.88,4.87-1.81,7.32-2.63S303.73,317.63,306.22,316.83Z" style="fill:#263238"></path><path d="M354.58,250.25l18,16.53s6.92-26,6.79-34.2c-.13-9.25-4.83-7.15-11-.9S354.58,250.25,354.58,250.25Z" style="fill:#FF7697"></path><path d="M366.22,260.93l.89.81a9.17,9.17,0,0,0,1.78-2.63A8.66,8.66,0,0,0,366.22,260.93ZM360,242.18l-.7,1a8.4,8.4,0,0,0,2.57,1.72A9.4,9.4,0,0,0,360,242.18Zm15.12-8a9.08,9.08,0,0,0-.61,3.45,9.18,9.18,0,0,0,.61,3.45,9.58,9.58,0,0,0,.6-3.45A9.27,9.27,0,0,0,375.07,234.14Z" style="fill:#fff"></path><path d="M358.21,247.57c2.58,1.8,9.55,8.27,10.72,9.33.61.56,3,2.89,3.57,3.44.08.07,0,.18-.12.11-1.17-1.05-2.46-2-3.65-3s-8.52-7.38-10.6-9.76C358.08,247.61,358.15,247.53,358.21,247.57Z" style="fill:#263238"></path><path d="M379.39,232.58c.12,8.21-6.8,34.2-6.8,34.2L360.86,256l16.21-29.6C378.49,226.85,379.33,228.73,379.39,232.58Z" style="opacity:0.1"></path><path d="M280.28,398.8c-2.42-.81-.27-7.8,2.42-10a71.21,71.21,0,0,1,8-4.22c8.78-4.22,21.4-9.86,21.4-9.86l-10.76-45.54,43.81.24s12,42.77,11.89,45.43c0,.16,0,.33,0,.49-.38,12.07-1,21.95-2,22.57C352.43,399.63,282.72,399.62,280.28,398.8Z" style="fill:#eb9481"></path><path d="M280.28,398.8c2.44.82,72.15.84,74.8-.85,1-.62,1.59-10.5,2-22.57,0-.16,0-.33,0-.49a51.73,51.73,0,0,0-1.37-6.4H310.64l1.48,6.27s-12.62,5.64-21.4,9.85a72.41,72.41,0,0,0-8,4.23C280,391,277.86,398,280.28,398.8Z" style="fill:#ebebeb"></path><path d="M279.49,399.19c2.48.84,73.47.76,76.16-1,1-.63,1.63-11,2-23.49v-.4l-45.79-.46,0,.78S284.71,386.84,281.94,389,277,398.37,279.49,399.19Z" style="fill:#a6a6a6"></path><path d="M280.29,396.44c12-.31,60.26-.42,72.11.19.09,0,.09.07,0,.07-11.86.57-60.14.29-72.11-.06C280,396.63,280,396.45,280.29,396.44Z" style="fill:#263238"></path><path d="M306.75,374c4.71-.88,10.47-.17,14.07,3.18.14.13-.05.33-.2.28a65.93,65.93,0,0,0-13.85-2.86A.3.3,0,0,1,306.75,374Z" style="fill:#263238"></path><path d="M303.36,376.06c4.7-.88,10.46-.17,14.06,3.19.14.13,0,.32-.19.27a66.07,66.07,0,0,0-13.85-2.86A.3.3,0,0,1,303.36,376.06Z" style="fill:#263238"></path><path d="M300,378.11c4.71-.88,10.47-.16,14.07,3.19.14.13,0,.32-.2.28A66.08,66.08,0,0,0,300,378.71.3.3,0,0,1,300,378.11Z" style="fill:#263238"></path><path d="M302.74,370.45c3.33,2.59,7.66,3.64,11.55,5.08a.59.59,0,0,0,.74-.59c.08,0,.14-.08.11-.17A25,25,0,0,0,307.88,364c-2-1.65-5.42-2.79-7.26-.24S300.79,368.94,302.74,370.45Zm-1.21-3.79c-.83-5.16,4.72-2.45,6.12-1.18a27.65,27.65,0,0,1,2.5,2.69c1.63,2,3,4.1,4.38,6.2-1.87-.82-3.79-1.47-5.69-2.23C306.58,371.25,302,369.51,301.53,366.66Z" style="fill:#263238"></path><path d="M330.85,367.57c-1.14-2.93-4.76-2.7-7.08-1.6a25.14,25.14,0,0,0-9.76,8.59.13.13,0,0,0,.07.19.58.58,0,0,0,.56.76c4.13-.41,8.59-.33,12.47-2C329.37,372.56,331.93,370.35,330.85,367.57Zm-10.08,6c-2,.25-4,.4-6.06.72a75.48,75.48,0,0,1,5.81-4.89,27.82,27.82,0,0,1,3.09-2c1.68-.88,7.74-2.09,5.62,2.69C328.06,372.8,323.19,373.32,320.77,373.61Z" style="fill:#263238"></path><path d="M283,399.45c14.79.54,70.24.29,72.62-1.23,1-.64,1.62-11,2-23.5v-.38l-41.7-.43Z" style="opacity:0.1"></path><path d="M410.14,300.84s3.92,26.45-9.78,34.87c-9.16,5.61-49.6-2.15-51.32-7.15-3.25-9.45-3.26-12.91-3.26-12.91l10.39,50.07-50.95.6s-9.56-41.42-7.11-85.39c.91-16.25,22.76-21.17,38-13.09,14.74,7.84,45.07,31.58,45.07,31.58Z" style="fill:#37474f"></path><path d="M350.25,335.71c-3.26-6.49-3.25-9.14-11.68-29.4-1.13-2.71-2.11-5.48-3.15-8.23s-2.29-5.67-3.16-8.59c-.05-.14-.28-.06-.22.08,1,2.51,1.7,5.12,2.58,7.67s1.74,5,2.64,7.47c.39,1.07.8,2.13,1.2,3.2-.16-.21-.31-.43-.46-.64-.68-1-1.35-2-2.05-2.92-1.45-2-3.15-3.82-4.44-5.91-.08-.12-.28,0-.19.13,1.45,2,2.55,4.21,3.92,6.25.67,1,1.36,1.95,2.07,2.91a19.84,19.84,0,0,0,2,2.56c1.18,3.13,3.78,10.71,5,13.83,3.92,9.81,2.64,6.62,5.39,11.83C349.9,336.23,350.39,336,350.25,335.71Z" style="fill:#263238"></path><path d="M328.66,357.45c7.67-.08,15.33-.52,23-.66.14,0,.16-.23,0-.23-7.64-.05-15.27-.35-22.92-.25s-15.32.47-23,.72c-.2,0-.23.31,0,.31C313.38,357.36,321,357.53,328.66,357.45Z" style="fill:#263238"></path><path d="M347.46,354.89c-.7-3.39-1.68-6.72-2.58-10.06s-1.79-6.68-2.71-10c-1.85-6.67-3.77-13.32-5.69-20-1.09-3.78-2.27-7.54-3.43-11.29,0-.11-.2-.07-.17,0q5.13,20.13,11,40c1.11,3.77,2.12,7.59,3.44,11.29C347.37,355,347.48,355,347.46,354.89Z" style="fill:#263238"></path><path d="M429.76,305.24l-64.37-.81s-.78-50.53,6.36-75.54c1.85-6.5,12.2-7.77,17.36-4.23C411.73,240.21,429.89,306.07,429.76,305.24Z" style="fill:#FF7697"></path><path d="M366.87,260.36c-.06.59-.1,1.18-.15,1.77l.16-.15a9.5,9.5,0,0,0,2-2.87A7.64,7.64,0,0,0,366.87,260.36Zm23-35.18a8.54,8.54,0,0,0-1.66,2.49,9,9,0,0,0,2.6-1.76C390.46,225.65,390.15,225.41,389.83,225.18Zm10.41,14.42a12.51,12.51,0,0,0-1-.91h0a7.91,7.91,0,0,0-1.83-1.09,9.38,9.38,0,0,0,2,2.87,10.25,10.25,0,0,0,2.07,1.61,6,6,0,0,0,.8.4A9.34,9.34,0,0,0,400.24,239.6Zm-15.09,35.82a9.26,9.26,0,0,0-2.87-2,10.09,10.09,0,0,0,4.88,4.88A9.31,9.31,0,0,0,385.15,275.42Zm20.55,9.05a9.06,9.06,0,0,0-3.44.61,10.19,10.19,0,0,0,6.89,0A9,9,0,0,0,405.7,284.47ZM386.33,252.8a9.33,9.33,0,0,0-3.45.62,9.73,9.73,0,0,0,3.45.6,9.54,9.54,0,0,0,3.45-.6A9.36,9.36,0,0,0,386.33,252.8Zm-10.55,38.5a9.28,9.28,0,0,0-.61,3.45,9.82,9.82,0,0,0,.61,3.45,9.38,9.38,0,0,0,.61-3.45A9.28,9.28,0,0,0,375.78,291.3Zm47,4a10.09,10.09,0,0,0,0,6.91,10.25,10.25,0,0,0,0-6.91Zm-17.06-37.2a10,10,0,0,0,0,6.89,9.28,9.28,0,0,0,.6-3.44A9,9,0,0,0,405.71,258.1Zm-30.64-24a9.08,9.08,0,0,0-.61,3.45,9.18,9.18,0,0,0,.61,3.45,9.58,9.58,0,0,0,.6-3.45A9.27,9.27,0,0,0,375.07,234.14Zm22.12,69.12a11.29,11.29,0,0,0-1.29,1.55l1.36,0c.28-.23.54-.47.79-.71a9.56,9.56,0,0,0,2-2.87A9.26,9.26,0,0,0,397.19,303.26Z" style="fill:#fff"></path><path d="M381.14,203.7s11.44,7.24,10.4,9.34-14.82,3-18.28,1.44S362.15,205,362.15,205Z" style="fill:#FF7697"></path><path d="M381.14,203.7s11.44,7.24,10.4,9.34-14.82,3-18.28,1.44S362.15,205,362.15,205Z" style="opacity:0.1"></path><path d="M376.58,235.5c3.25-.07,8.7-5.34,9.75-10.28.07-.34-1.3-3.28-2.79-6.92-.9-2.22-1.85-4.7-2.55-7-.14-.48-13.56,8-13.56,8a38.64,38.64,0,0,1,4.1,8.53,5.22,5.22,0,0,1,.19,1,1.43,1.43,0,0,0,0,.16C372,230.8,373.1,235.57,376.58,235.5Z" style="fill:#eb9481"></path><path d="M371.71,228.73c0,.05,0,.11,0,.16a9,9,0,0,0,1.52-.37c8.55-2.77,7.59-14.23,7.21-17.1-2.49,1.15-13.05,7.79-13.05,7.79a38.88,38.88,0,0,1,4.11,8.54A5,5,0,0,1,371.71,228.73Z" style="fill:#263238"></path><path d="M377.8,193.56c3,4.8,4.31,20.66,1.5,25-4.07,6.33-12.78,9.18-18.67,3.82-5.72-5.2-7.06-25.89-3.73-30.07C361.8,186.18,373.36,186.47,377.8,193.56Z" style="fill:#eb9481"></path><path d="M365.5,206.58s.08,0,.09.09c.06,1.07.3,2.28,1.3,2.55,0,0,0,.07,0,.06C365.69,209.22,365.38,207.6,365.5,206.58Z" style="fill:#263238"></path><path d="M366.35,205.38c1.71-.28,2.14,3.15.56,3.41S364.92,205.62,366.35,205.38Z" style="fill:#263238"></path><path d="M359.36,207.54s-.07.06-.07.1c.17,1.06.19,2.3-.73,2.77,0,0,0,.07,0,.06C359.73,210.16,359.69,208.51,359.36,207.54Z" style="fill:#263238"></path><path d="M358.27,206.55c-1.72.08-1.42,3.53.18,3.45S359.72,206.47,358.27,206.55Z" style="fill:#263238"></path><path d="M367.51,203.64a12.7,12.7,0,0,1-1.39-.3,2.31,2.31,0,0,1-1.36-.57.75.75,0,0,1,0-.9,1.82,1.82,0,0,1,1.79-.41,2.68,2.68,0,0,1,1.67.95A.78.78,0,0,1,367.51,203.64Z" style="fill:#263238"></path><path d="M356.73,205c.46-.14.87-.35,1.32-.53a2.34,2.34,0,0,0,1.24-.79.72.72,0,0,0-.16-.88,1.79,1.79,0,0,0-1.83-.11,2.67,2.67,0,0,0-1.49,1.21A.79.79,0,0,0,356.73,205Z" style="fill:#263238"></path><path d="M367.73,216.32c-.22.28-.43.66-.81.74a3,3,0,0,1-1.18-.12,0,0,0,0,0,0,.06,1.44,1.44,0,0,0,1.42.4,1.13,1.13,0,0,0,.72-1C367.85,216.29,367.76,216.28,367.73,216.32Z" style="fill:#263238"></path><path d="M366.21,213.28A3.68,3.68,0,0,1,364,215.2a4.31,4.31,0,0,1-1.29.22h-.49a.28.28,0,0,1-.25-.21h0a.41.41,0,0,1,0-.11h0V215c-.13-.82-.21-2.07-.21-2.07-.28.19-1.72,1.07-1.75.64a55.3,55.3,0,0,1,0-11.14.1.1,0,0,1,.19,0c.37,3.42.13,6.87.44,10.31a6.32,6.32,0,0,1,1.64-.73c.12,0,.11,2.43.2,2.79v0a5.08,5.08,0,0,0,3.6-1.64C366.17,213.13,366.26,213.19,366.21,213.28Z" style="fill:#263238"></path><path d="M381,208c-3.07-.25-6.49-9.71-6.49-9.71s.85,4.13.06,4.18-5.09-4.93-6.25-8.89a32.1,32.1,0,0,1-6.66,5.06c-3.47,1.83-6.78,3.35-6.9,2.72-.37-1.86.36-7.46,2.55-9.69,2.52-2.57,5.86-5.15,12.33-4s8.46,3.93,9.95,6.75S382.16,208.06,381,208Z" style="fill:#263238"></path><path d="M354.5,200.64s8.7-3.07,16.11-1.7c2.91.54,11.21,5.08,11.21,5.08a27,27,0,0,0-3.14-11.61c-4.66-8.22-16.05-6.46-20.46-2.51C354.26,193.46,354.5,200.64,354.5,200.64Zm5.58-3.24a4,4,0,0,1,3.95-4c3.45-.2,4.53,1.9,4.88,3.42A27.16,27.16,0,0,0,360.08,197.4Z" style="fill:#FF7697"></path><path d="M377.34,207.08s2.22-5.77,4.75-5.09,1.71,8.43-.66,10a2.74,2.74,0,0,1-3.92-.55Z" style="fill:#eb9481"></path><path d="M381.8,204.2s.06.05,0,.07c-1.65,1.2-2.19,3.14-2.43,5.07a1.52,1.52,0,0,1,2.1-1,.06.06,0,0,1,0,.11,1.69,1.69,0,0,0-1.66,1,8.91,8.91,0,0,0-.5,1.67c-.05.19-.36.17-.35,0v0C378.34,208.79,379.35,205.06,381.8,204.2Z" style="fill:#263238"></path><path d="M298.21,399.55c-2.42-.81-.27-7.8,2.42-10a71.21,71.21,0,0,1,8-4.22c8.78-4.22,21.4-9.86,21.4-9.86L319.29,330l43.81.24s12,42.77,11.89,45.43c0,.16,0,.33,0,.49-.38,12.07-1,21.95-2,22.57C370.36,400.38,300.65,400.37,298.21,399.55Z" style="fill:#eb9481"></path><path d="M298.21,399.55c2.44.82,72.15.84,74.8-.85,1-.62,1.59-10.5,2-22.57,0-.16,0-.33,0-.49a51.73,51.73,0,0,0-1.37-6.4H328.57l1.48,6.27s-12.62,5.64-21.4,9.85a70.64,70.64,0,0,0-8,4.23C297.93,391.75,295.79,398.74,298.21,399.55Z" style="fill:#ebebeb"></path><path d="M297.42,399.94c2.48.84,73.47.75,76.16-1,1-.63,1.63-11,2-23.49v-.4l-45.79-.46,0,.78s-27.16,12.18-29.93,14.39S294.94,399.12,297.42,399.94Z" style="fill:#a6a6a6"></path><path d="M298.22,397.19c12-.31,60.26-.42,72.11.19.09,0,.09.07,0,.07-11.86.57-60.14.29-72.11-.06C298,397.38,298,397.2,298.22,397.19Z" style="fill:#263238"></path><path d="M324.68,374.76c4.71-.88,10.47-.17,14.07,3.18.14.13-.05.33-.2.28a66.59,66.59,0,0,0-13.85-2.87A.3.3,0,0,1,324.68,374.76Z" style="fill:#263238"></path><path d="M321.29,376.81c4.7-.88,10.46-.17,14.06,3.19.14.12,0,.32-.19.27a66.07,66.07,0,0,0-13.85-2.86A.3.3,0,0,1,321.29,376.81Z" style="fill:#263238"></path><path d="M317.89,378.86c4.71-.88,10.47-.16,14.07,3.19.14.13,0,.32-.2.28a66.08,66.08,0,0,0-13.85-2.87A.3.3,0,0,1,317.89,378.86Z" style="fill:#263238"></path><path d="M320.67,371.2c3.33,2.59,7.66,3.64,11.55,5.07a.58.58,0,0,0,.74-.58c.08,0,.14-.08.11-.17a25,25,0,0,0-7.26-10.78c-2-1.65-5.42-2.79-7.26-.24S318.72,369.69,320.67,371.2Zm-1.21-3.79c-.83-5.16,4.72-2.46,6.12-1.18a27.65,27.65,0,0,1,2.5,2.69c1.63,2,2.95,4.1,4.38,6.2-1.87-.82-3.79-1.47-5.69-2.23C324.51,372,319.92,370.26,319.46,367.41Z" style="fill:#263238"></path><path d="M348.78,368.32c-1.14-2.93-4.76-2.7-7.08-1.6a25.14,25.14,0,0,0-9.76,8.59.13.13,0,0,0,.07.19.58.58,0,0,0,.56.76c4.13-.41,8.59-.33,12.47-2C347.3,373.3,349.86,371.1,348.78,368.32Zm-10.08,6c-2,.25-4.05.4-6.06.72a75.48,75.48,0,0,1,5.81-4.89,27.82,27.82,0,0,1,3.09-2c1.68-.88,7.74-2.09,5.62,2.69C346,373.55,341.12,374.07,338.7,374.36Z" style="fill:#263238"></path><path d="M428.07,303.57s3.07,22.27-10.63,30.69c-9.16,5.61-49,4.23-50.75-.77-3.25-9.45-3-15.1-3-15.1l10.39,47.34-51,.6S311.23,325.76,313,282.82c.64-15.25,25.38-24.48,38.79-13,12.67,10.87,35.14,36,35.14,36Z" style="fill:#37474f"></path><path d="M368.18,338.45c-3.26-6.49-3.25-9.14-11.68-29.41-1.13-2.71-2.11-5.47-3.15-8.22s-2.29-5.67-3.16-8.59c-.05-.14-.28-.07-.22.07,1,2.51,1.7,5.13,2.58,7.68s1.74,5,2.64,7.46c.39,1.07.8,2.14,1.2,3.21l-.46-.65c-.68-1-1.35-1.95-2.05-2.91-1.45-2-3.15-3.83-4.44-5.91-.08-.13-.28,0-.19.13,1.45,2,2.55,4.21,3.92,6.24q1,1.49,2.07,2.91a19.18,19.18,0,0,0,2,2.56c1.18,3.14,3.78,10.72,5,13.83,3.92,9.81,2.64,6.62,5.39,11.84C367.83,339,368.32,338.73,368.18,338.45Z" style="fill:#263238"></path><path d="M346.59,357.46c7.67-.08,15.33-.52,23-.66.14,0,.16-.23,0-.23-7.64-.05-15.27-.34-22.92-.25s-15.32.47-23,.72c-.2,0-.23.31,0,.31C331.31,357.37,339,357.54,346.59,357.46Z" style="fill:#263238"></path><path d="M365.39,354.9c-.7-3.39-1.68-4-2.58-7.33s-1.79-6.69-2.71-10c-1.85-6.67-3.77-13.33-5.69-20-1.09-3.77-2.27-7.53-3.43-11.29a.09.09,0,0,0-.17.05q5.13,20.12,11,40c1.11,3.76,2.12,4.86,3.44,8.56C365.3,355,365.41,355,365.39,354.9Z" style="fill:#263238"></path><path d="M323.15,366.33c-1.14-4.4-2.12-8.83-3-13.29s-1.69-8.91-2.38-13.39q-2.15-13.44-3.4-27c-.45-4.52-.82-9-1.05-13.56a130.33,130.33,0,0,1-.06-13.55,31.66,31.66,0,0,1,1-6.62,9.2,9.2,0,0,1,.58-1.54c.23-.51.48-1,.75-1.49a20.07,20.07,0,0,1,1.87-2.77,19.56,19.56,0,0,1,2.34-2.39,23.19,23.19,0,0,1,2.74-2,34.05,34.05,0,0,1,6.17-2.81,30.38,30.38,0,0,0-6.35,2.5,22.59,22.59,0,0,0-2.88,1.88,19.49,19.49,0,0,0-2.53,2.36,19.22,19.22,0,0,0-2,2.81c-.3.5-.58,1-.83,1.53a11.58,11.58,0,0,0-.66,1.63,32.43,32.43,0,0,0-1.19,6.8,111.71,111.71,0,0,0-.13,13.69c.19,4.55.52,9.09.93,13.62,1,9.05,2.07,18.09,3.73,27,.82,4.47,1.73,8.93,2.76,13.36.54,2.21,1.09,4.42,1.69,6.61S322.43,364.18,323.15,366.33Z" style="fill:#263238"></path><path d="M356.34,315.56q-12.55-7.86-24.93-16l-12.35-8.17-6.16-4.1-1.54-1-.72-.45a6.15,6.15,0,0,0-.73-.31c-1.13-.42-2.3-.83-3.46-1.23-4.65-1.64-9.32-3.22-14-4.79s-9.35-3.15-14-4.62l-1.76-.51c-.28-.08-.59-.16-.84-.21l-.2,0,0,0-.57,0c-1.3,0-2.5-.14-3.75-.24l-7.38-.71c-4.91-.55-9.82-1.07-14.72-1.72,4.94.2,9.86.52,14.8.74l7.39.38c1.22.05,2.48.11,3.64.11l.36,0a3.23,3.23,0,0,1,.44,0l.26,0c.35.06.65.13,1,.2.61.15,1.22.3,1.82.47,9.54,2.69,18.9,5.81,28.26,9,1.17.42,2.33.83,3.5,1.28a6.32,6.32,0,0,1,1,.42l.85.54,1.55,1,6.13,4.16c4.07,2.8,8.14,5.59,12.18,8.44Q344.42,306.74,356.34,315.56Z" style="fill:#263238"></path><path d="M289.51,277.56c-1.71,1.24-3.48,2.38-5.28,3.49-.89.56-1.81,1.07-2.77,1.55a5.21,5.21,0,0,1-.79.33,6.75,6.75,0,0,1-.83.13l-1.58.16c-2.1.14-4.2.27-6.31.33s-4.2.11-6.31.07c2.09-.27,4.18-.46,6.28-.64l6.28-.51,1.57-.12a5.15,5.15,0,0,0,.73-.1,4.81,4.81,0,0,0,.67-.26c.93-.44,1.85-1,2.78-1.44C285.8,279.56,287.64,278.53,289.51,277.56Z" style="fill:#263238"></path><path d="M270.69,267.44c-1-1.1-6.08-.35-7.53-.66s-5.91-1.19-7.75-.77-3.33,8-2.07,10.16,6.86,1.16,8.68,1.4,5.64,2,7.35.66S272.57,269.49,270.69,267.44Z" style="fill:#ebebeb"></path><path d="M393.35,244.69c.26,24.16-2.64,47.72-10.16,51.92-9.36,5.23-43.82,13.08-53.52,12.65-3.92-.18.09-34.12,4.19-33.23,10.19,2.21,31.4-1.61,31.9-1.5,1,.23,12.14-27.27,15.93-34.32C391.35,222.3,393.2,230,393.35,244.69Z" style="fill:#eb9481"></path><path d="M296.32,277a4.4,4.4,0,0,0,1.23,5.06,8.09,8.09,0,0,0-2.65,4.12c-.62,2.83,3.55,5,3.55,5a8.63,8.63,0,0,0-2.22,4.6c-.32,2.77,3.57,5.6,3.57,5.6a7.59,7.59,0,0,0,.59,5.27c2.37,4.27,9.82,4.65,14.56,4.94s18.43-3.33,21.11-3.75l2.12-30.37s-20.87-7.33-26.48-6.88C307,271,297.75,273.57,296.32,277Z" style="fill:#eb9481"></path><path d="M297.88,281.76c4.93-1.61,10.07-1.67,15.2-2,.11,0,.12.17,0,.18-5.1.29-10.08,1.6-15.16,2.09C297.79,282,297.75,281.8,297.88,281.76Z" style="fill:#263238"></path><path d="M298.58,290.81a13.39,13.39,0,0,1,3.52-.31c1.25,0,2.51,0,3.76,0,2.51,0,5,.12,7.52.29.11,0,.13.18,0,.18-2.5,0-5,0-7.5.05l-3.75.14a15.52,15.52,0,0,1-3.54,0A.18.18,0,0,1,298.58,290.81Z" style="fill:#263238"></path><path d="M299.9,301.4a9.47,9.47,0,0,1,3.19-.12c1.14,0,2.28.08,3.43.1,2.28.06,4.57.11,6.86.08.11,0,.12.18,0,.18-2.33,0-4.65.11-7,.13H303a8.72,8.72,0,0,1-3.1-.26A.06.06,0,0,1,299.9,301.4Z" style="fill:#263238"></path><path d="M393.56,266.77l-21.07-7.15a238.31,238.31,0,0,1,10.76-25.94c5.78-11.35,9.88-6.19,10.79,4.8S393.56,266.77,393.56,266.77Z" style="fill:#FF7697"></path><path d="M386.33,252.8a9.33,9.33,0,0,0-3.45.62,9.73,9.73,0,0,0,3.45.6,9.54,9.54,0,0,0,3.45-.6A9.36,9.36,0,0,0,386.33,252.8Zm1.91-25.29c0,.05-.05.1-.07.16a7.37,7.37,0,0,0,.69-.34A2.54,2.54,0,0,0,388.24,227.51Z" style="fill:#fff"></path><path d="M375.17,255.65A178.2,178.2,0,0,1,393,261c.09,0,0,.17-.05.15a179.86,179.86,0,0,1-17.84-5.32C375,255.79,375.07,255.63,375.17,255.65Z" style="fill:#263238"></path><path d="M380.29,240.05c-1.21,2.39-2.33,4.82-3.39,7.28.22-.88.43-1.76.64-2.64,0-.11-.15-.14-.17,0-.21.82-.42,1.64-.62,2.46l-.3,1.19a1.6,1.6,0,0,1-.05.21l-.42,1v0c0,.09-.07.18-.11.26a72.91,72.91,0,0,0-3.64,9.86.1.1,0,0,0,.19.06,100.75,100.75,0,0,0,4.12-9.76c1.33-3.28,2.62-6.57,3.83-9.9C380.37,240,380.31,240,380.29,240.05Z" style="fill:#263238"></path><path d="M394.6,256.83c0-.18,0-.35,0-.53s.18-.61.26-.9c.13-.49.25-1,.35-1.47.22-1,.37-2,.53-3a0,0,0,0,0-.07,0c-.24,1-.5,2-.72,2.94-.11.48-.21,1-.3,1.42l0,.13c.09-2.77.12-5.54.05-8.32,0-.07-.12-.07-.13,0-.36,3.3-.58,6.61-.73,9.93a84.25,84.25,0,0,0-.25,9.53c-.21,0-.43-.06-.64-.07s-.15.12-.05.17c.27.13.55.22.83.35a.23.23,0,0,0,.31-.17A84.79,84.79,0,0,0,394.6,256.83Z" style="fill:#263238"></path></g><g id="freepik--Bonfire--inject-66"><path d="M253.77,408.36s-44.4-6.49-47.06-4.78-5.08,14.66.28,17.81,46.06-2.59,46.06-2.59S257.46,414.92,253.77,408.36Z" style="fill:#FF7697"></path><path d="M253.77,408.36s-44.4-6.49-47.06-4.78-5.08,14.66.28,17.81,46.06-2.59,46.06-2.59S257.46,414.92,253.77,408.36Z" style="opacity:0.49"></path><path d="M206.93,404.08c1.34-.31,3.51,4.14,3,9.09-.47,4.71-2.24,7.85-3,7.75s-3.22-2.84-2.81-8.92C204.46,407.59,205.81,404.33,206.93,404.08Z" style="fill:#fff;opacity:0.2"></path><g style="opacity:0.2"><path d="M211.59,405.31a67.48,67.48,0,0,1,7.66-.09c1.28.06,2.56.17,3.84.34a14.68,14.68,0,0,1,1.94.36c.68.17,1.17.31,1.81.41,2.45.43,5,.6,7.51.82s5.07.41,7.62.65a72.56,72.56,0,0,1-7.66.31,49.94,49.94,0,0,1-7.69-.57c-.62-.1-1.35-.31-1.9-.46s-1.19-.27-1.8-.38c-1.24-.22-2.49-.36-3.75-.52Z"></path><path d="M216.63,407.68q2.72.39,5.37.9c1.78.32,3.55.71,5.3.93a34.67,34.67,0,0,0,5.31.08c1.8-.08,3.61-.13,5.44-.14a40.73,40.73,0,0,1-5.36,1.09,21.81,21.81,0,0,1-5.55.19,36.88,36.88,0,0,1-5.36-1.22A43.2,43.2,0,0,1,216.63,407.68Z"></path><path d="M238.43,411.85a15.34,15.34,0,0,1,8-2.94,9.73,9.73,0,0,1,4.37.72,5.75,5.75,0,0,1,1.93,1.31,3.22,3.22,0,0,1,.71,1.11,1.36,1.36,0,0,1,.08.46,1.77,1.77,0,0,1-.08.33,1.72,1.72,0,0,1-.09.19,2.44,2.44,0,0,1-.4.54,7.5,7.5,0,0,1-4,2.14,4.82,4.82,0,0,1-2.35-.17,9.87,9.87,0,0,1-2-.92,3.47,3.47,0,0,1-1.67-1.71,1,1,0,0,1,.12-.81,1.17,1.17,0,0,1,.57-.44,4.24,4.24,0,0,1,1.1-.28,9.35,9.35,0,0,1,2.18,0,3.94,3.94,0,0,1,2,.75,6.28,6.28,0,0,0-4.06-.18,5,5,0,0,0-.92.31c-.26.16-.31.25-.23.41a2.91,2.91,0,0,0,1.37,1.1,13,13,0,0,0,1.88.72,3.78,3.78,0,0,0,1.83.06,6.55,6.55,0,0,0,3.31-1.83,1.73,1.73,0,0,0,.24-.3l0,0a.06.06,0,0,0,0,.07s0,0,0-.05a2,2,0,0,0-.43-.66,5,5,0,0,0-1.53-1.08,10,10,0,0,0-3.88-.83,13.79,13.79,0,0,0-4.06.54A21.26,21.26,0,0,0,238.43,411.85Z"></path><path d="M253.2,416.15a15.49,15.49,0,0,1-5.51,1.77,11.77,11.77,0,0,1-5.87-.65,39,39,0,0,1-5.19-2.53,18.13,18.13,0,0,0-5.3-1.85,12.33,12.33,0,0,1,5.7,1c1.81.74,3.45,1.64,5.21,2.25a13.37,13.37,0,0,0,5.37.85A27,27,0,0,0,253.2,416.15Z"></path><path d="M209.94,419.94q3.44,0,6.84.07a44.83,44.83,0,0,0,6.7-.25,27.77,27.77,0,0,1,6.92-.36,54,54,0,0,1,6.83.75l-6.84.21a39.19,39.19,0,0,0-6.7.61,31.06,31.06,0,0,1-6.95,0A57.5,57.5,0,0,1,209.94,419.94Z"></path><path d="M240.74,418.48c-1.89-.46-3.77-1-5.67-1.35-.95-.21-1.9-.41-2.84-.54a7.17,7.17,0,0,0-2.77.07c-1.88.36-3.79.78-5.73,1.12-1,.16-1.95.29-2.94.37a10.78,10.78,0,0,1-3.09-.12,25.35,25.35,0,0,1-2.87-.85,7,7,0,0,1-2.73-1.65,2.07,2.07,0,0,1-.45-.9,1.69,1.69,0,0,1,.13-1.05,2.53,2.53,0,0,1,1.45-1.15,10,10,0,0,1,3-.5,15.74,15.74,0,0,1,3,.15,6.62,6.62,0,0,1,2.9,1,1.08,1.08,0,0,1,.52.79.86.86,0,0,1-.64.72,6.11,6.11,0,0,1-1.48.31,18,18,0,0,1-2.93.07,27.68,27.68,0,0,0,2.88-.39c.83-.17,2.31-.58,1.3-1a6.4,6.4,0,0,0-2.64-.68,15.85,15.85,0,0,0-2.84,0,11,11,0,0,0-2.69.57,1.51,1.51,0,0,0-.81.59.68.68,0,0,0,.18.75,6.22,6.22,0,0,0,2.26,1.27,24.51,24.51,0,0,0,2.73.79,17.57,17.57,0,0,0,5.57-.21c1.92-.26,3.81-.66,5.77-.9a9.39,9.39,0,0,1,1.52-.1,9.14,9.14,0,0,1,1.52.2c1,.2,1.92.44,2.86.72C237.08,417.14,238.93,417.75,240.74,418.48Z"></path><path d="M228.21,413c-2.62-.44-5.12-1.13-7.62-1.8l-3.73-1a18.55,18.55,0,0,0-3.8-.67,8.6,8.6,0,0,1,4-.27,28.47,28.47,0,0,1,3.89.77A31.26,31.26,0,0,1,228.21,413Z"></path></g><path d="M247.64,408.08s44.47-6,47.11-4.26,4.92,14.71-.48,17.8-46-3.09-46-3.09S243.88,414.6,247.64,408.08Z" style="fill:#FF7697"></path><path d="M247.64,408.08s44.47-6,47.11-4.26,4.92,14.71-.48,17.8-46-3.09-46-3.09S243.88,414.6,247.64,408.08Z" style="opacity:0.49"></path><path d="M294.53,404.31c-1.35-.32-3.56,4.1-3.12,9.06.43,4.71,2.16,7.87,2.89,7.78s3.26-2.81,2.91-8.88C297,407.85,295.65,404.57,294.53,404.31Z" style="fill:#fff;opacity:0.2"></path><g style="opacity:0.2"><path d="M249.24,417.23l7.62.42c1.27.05,2.53.12,3.78.11.62,0,1.25,0,1.85-.07s1.32-.14,1.95-.14a51.35,51.35,0,0,1,7.67.72,73.49,73.49,0,0,1,7.5,1.59q-3.83-.28-7.62-.63c-2.52-.21-5.06-.46-7.54-.45-.65,0-1.15.05-1.86.11a18.58,18.58,0,0,1-2,0c-1.29-.06-2.57-.15-3.84-.32A64.05,64.05,0,0,1,249.24,417.23Z"></path><path d="M253.86,417.1a46.83,46.83,0,0,1,5.28-1.43,39.17,39.17,0,0,1,5.44-.79,21.89,21.89,0,0,1,5.52.62,40.42,40.42,0,0,1,5.26,1.51c-1.82-.16-3.63-.35-5.42-.56a33,33,0,0,0-5.3-.34c-1.76.09-3.55.33-5.35.51S255.69,417,253.86,417.1Z"></path><path d="M275.92,414.65a22.59,22.59,0,0,0,3.81,1.76,14.09,14.09,0,0,0,4,.85,9.79,9.79,0,0,0,3.94-.53,4.75,4.75,0,0,0,1.6-1,2,2,0,0,0,.49-.62c0-.05,0-.07,0-.06a.11.11,0,0,0,0,.08l0-.05a1.29,1.29,0,0,0-.21-.31,6.47,6.47,0,0,0-3.16-2.08,3.76,3.76,0,0,0-1.82-.09,14.39,14.39,0,0,0-1.94.57,2.91,2.91,0,0,0-1.45,1c-.09.16-.05.25.2.43a4.86,4.86,0,0,0,.89.38,6.28,6.28,0,0,0,4.06.14,3.91,3.91,0,0,1-2,.59,8.82,8.82,0,0,1-2.17-.15,4.57,4.57,0,0,1-1.08-.36,1.3,1.3,0,0,1-.54-.49,1,1,0,0,1-.05-.81,3.5,3.5,0,0,1,1.79-1.58,11.28,11.28,0,0,1,2.08-.76,5,5,0,0,1,2.36,0,7.55,7.55,0,0,1,3.84,2.45,3,3,0,0,1,.36.57l.08.2a1.75,1.75,0,0,1,0,.33,1.29,1.29,0,0,1-.11.46,3.07,3.07,0,0,1-.79,1,5.94,5.94,0,0,1-2,1.17,9.9,9.9,0,0,1-4.41.37A15.42,15.42,0,0,1,275.92,414.65Z"></path><path d="M291,411.51a26.8,26.8,0,0,0-5.5-1.25,13.24,13.24,0,0,0-5.43.43c-1.8.47-3.51,1.23-5.36,1.83a12.33,12.33,0,0,1-5.77.54,18.38,18.38,0,0,0,5.43-1.44,39.72,39.72,0,0,1,5.37-2.12,13.76,13.76,0,0,1,2.95-.47,14,14,0,0,1,3,.28A15.65,15.65,0,0,1,291,411.51Z"></path><path d="M264.39,407.26a55.53,55.53,0,0,1,6.78-1.05,31.12,31.12,0,0,1,7,0,38.28,38.28,0,0,0,6.7.59l6.84.19a55.81,55.81,0,0,1-6.82.77,27.24,27.24,0,0,1-6.92-.34,47.84,47.84,0,0,0-6.7-.22Q267.82,407.23,264.39,407.26Z"></path><path d="M278.75,408.21c-1.87.59-3.76,1.06-5.66,1.5-1,.2-1.93.37-2.91.49a9.54,9.54,0,0,1-1.53.09,11.92,11.92,0,0,1-1.51-.22c-1.93-.39-3.79-.94-5.68-1.35a17.61,17.61,0,0,0-5.54-.64,23.2,23.2,0,0,0-2.78.57,6.1,6.1,0,0,0-2.35,1.09.66.66,0,0,0-.24.73,1.65,1.65,0,0,0,.76.66,11.08,11.08,0,0,0,2.64.77,15.75,15.75,0,0,0,2.83.24,6.16,6.16,0,0,0,2.68-.47c1-.36-.4-.88-1.21-1.12s-1.89-.45-2.85-.62a20.5,20.5,0,0,1,2.92.3,6,6,0,0,1,1.45.43.86.86,0,0,1,.59.77,1.11,1.11,0,0,1-.58.75,6.69,6.69,0,0,1-3,.74,16.58,16.58,0,0,1-3-.08,10,10,0,0,1-3-.74,2.54,2.54,0,0,1-1.35-1.26,1.66,1.66,0,0,1,0-1.06,2,2,0,0,1,.51-.86,6.91,6.91,0,0,1,2.85-1.43,25.09,25.09,0,0,1,2.93-.63,10.91,10.91,0,0,1,3.09.13c1,.15,1.95.36,2.9.6,1.9.49,3.78,1.05,5.63,1.56a7.12,7.12,0,0,0,2.75.28c.95-.05,1.91-.18,2.87-.31C274.91,408.88,276.82,408.53,278.75,408.21Z"></path><path d="M265.82,412.71a30.68,30.68,0,0,1-7.5,2.41,28.82,28.82,0,0,1-3.94.47,8.7,8.7,0,0,1-3.94-.59,17.55,17.55,0,0,0,3.84-.37l3.81-.72C260.63,413.44,263.18,412.94,265.82,412.71Z"></path><path d="M277.67,417.53c2,.66,3.93,1.3,5.9,1.75a24.5,24.5,0,0,0,3,.55c1,.15,2,.17,3.08.25a8.31,8.31,0,0,1-3.12.71,11.56,11.56,0,0,1-3.21-.31,13.86,13.86,0,0,1-3-1.11A10.11,10.11,0,0,1,277.67,417.53Z"></path></g><path d="M251.06,408s-52.67,10.52-54.92,13.25.61,16.57,8,17.66,50.62-20.21,50.62-20.21S258,413.16,251.06,408Z" style="fill:#FF7697"></path><path d="M251.06,408s-52.67,10.52-54.92,13.25.61,16.57,8,17.66,50.62-20.21,50.62-20.21S258,413.16,251.06,408Z" style="opacity:0.4"></path><path d="M196.6,421.68c1.38-.82,5.73,2.79,7.3,7.92,1.5,4.88.87,8.69,0,8.87s-4.84-1.6-7-7.82C195.34,426.13,195.45,422.36,196.6,421.68Z" style="fill:#fff;opacity:0.2"></path><g style="opacity:0.2"><path d="M202.36,421.13c2.8-1.12,5.68-2.08,8.6-2.93,1.46-.44,2.95-.8,4.46-1.13a21.58,21.58,0,0,1,2.32-.37c.83-.09,1.46-.14,2.23-.28,2.94-.51,5.86-1.33,8.8-2.08l8.79-2.35c-2.77,1.18-5.61,2.2-8.5,3.15a67.54,67.54,0,0,1-8.87,2.35c-.74.14-1.63.2-2.32.27s-1.47.19-2.21.32c-1.48.26-2.95.61-4.43.92s-2.95.7-4.43,1.07Z"></path><path d="M209.05,421.56c2.15-.39,4.29-.75,6.44-1.07s4.3-.63,6.37-1.07a42.59,42.59,0,0,0,6-2q3-1.17,6-2.3a52.88,52.88,0,0,1-5.59,3.06,29,29,0,0,1-6.14,2.29,55.58,55.58,0,0,1-6.53.86Q212.34,421.61,209.05,421.56Z"></path><path d="M235.33,417.38a18.43,18.43,0,0,1,7.75-5.92,13,13,0,0,1,5.18-.92,7.61,7.61,0,0,1,2.68.56,3.88,3.88,0,0,1,1.23.8,1.63,1.63,0,0,1,.27.4,1.26,1.26,0,0,1,.05.33,1.36,1.36,0,0,1,0,.21,2.69,2.69,0,0,1-.22.66,8.24,8.24,0,0,1-3.53,3.63,6.27,6.27,0,0,1-2.66.72,14.56,14.56,0,0,1-2.64-.13,4.38,4.38,0,0,1-2.56-1,.85.85,0,0,1-.2-.8,1.26,1.26,0,0,1,.42-.63,5.91,5.91,0,0,1,1.11-.7,11.59,11.59,0,0,1,2.43-.82,5.24,5.24,0,0,1,2.55-.05,5.83,5.83,0,0,0-2.46.32,11.68,11.68,0,0,0-2.21,1c-.65.38-1.43,1-1,1.25a3.9,3.9,0,0,0,2.07.62,18.06,18.06,0,0,0,2.44,0,4.9,4.9,0,0,0,2.14-.65,7.26,7.26,0,0,0,3-3.14,1.48,1.48,0,0,0,.15-.41v-.07s0,0,0,0l-.07-.08a2.46,2.46,0,0,0-.81-.52,6.43,6.43,0,0,0-2.22-.49,13.17,13.17,0,0,0-4.76.67,17.54,17.54,0,0,0-4.34,2.14A24.75,24.75,0,0,0,235.33,417.38Z"></path><path d="M253.78,416a19.22,19.22,0,0,1-5.47,3.81A18.15,18.15,0,0,1,245,421a17.69,17.69,0,0,1-3.53.4,55.6,55.6,0,0,1-6.91-.51,23.71,23.71,0,0,0-6.77.26,16.89,16.89,0,0,1,6.83-1.11c2.33.06,4.58.33,6.82.27a17.82,17.82,0,0,0,3.29-.31,21.11,21.11,0,0,0,3.16-.93A30.91,30.91,0,0,0,253.78,416Z"></path><path d="M206.82,436.36l7.75-2.47a58.23,58.23,0,0,0,7.45-2.8,35.66,35.66,0,0,1,7.59-3,79.46,79.46,0,0,1,7.95-1.95l-7.62,2.74a47.63,47.63,0,0,0-7.29,3.17,40.94,40.94,0,0,1-7.79,2.66C212.21,435.36,209.54,436,206.82,436.36Z"></path><path d="M240.79,423.11c-2.33.24-4.66.45-7,.77-1.16.15-2.31.31-3.43.54a9.34,9.34,0,0,0-3.11,1.12c-2,1.08-3.95,2.21-6,3.27-1,.53-2.06,1-3.13,1.5a14,14,0,0,1-3.48,1.06,32.6,32.6,0,0,1-3.58.24,9.24,9.24,0,0,1-3.71-.59,2.18,2.18,0,0,1-.84-.68,1.52,1.52,0,0,1-.29-1,2.58,2.58,0,0,1,1.07-1.63,12.62,12.62,0,0,1,3.14-1.66,22.24,22.24,0,0,1,3.41-1,8.87,8.87,0,0,1,3.64-.16,1.28,1.28,0,0,1,.89.56c.15.47-.2.73-.39.92a7.24,7.24,0,0,1-1.52.88,24.24,24.24,0,0,1-3.24,1.22c1.05-.45,2.09-.93,3.08-1.47a6.73,6.73,0,0,0,1.34-.92c.19-.17.3-.39.24-.45a1,1,0,0,0-.56-.22,8.49,8.49,0,0,0-3.29.31,20.44,20.44,0,0,0-3.2,1.09,13.71,13.71,0,0,0-2.82,1.6c-.37.32-.7.69-.7,1s.17.58.58.79a8.33,8.33,0,0,0,3.16.41,30.48,30.48,0,0,0,3.42-.27,22.35,22.35,0,0,0,6.22-2.34c2-1,4-2.15,6.07-3.14a12.14,12.14,0,0,1,1.65-.68,11.48,11.48,0,0,1,1.77-.39c1.18-.18,2.35-.3,3.52-.39C236.1,423.2,238.45,423.1,240.79,423.11Z"></path><path d="M224.34,422.43c-3.12.48-6.24.72-9.34,1-1.55.14-3.1.28-4.64.45a21.3,21.3,0,0,0-4.54.87,11.65,11.65,0,0,1,4.37-1.71,39,39,0,0,1,4.69-.69A47.47,47.47,0,0,1,224.34,422.43Z"></path></g><path d="M248.94,408s52.67,10.52,54.92,13.25-.61,16.57-8,17.66-50.62-20.21-50.62-20.21S242,413.16,248.94,408Z" style="fill:#FF7697"></path><path d="M248.94,408s52.67,10.52,54.92,13.25-.61,16.57-8,17.66-50.62-20.21-50.62-20.21S242,413.16,248.94,408Z" style="opacity:0.4"></path><path d="M303.4,421.68c-1.38-.82-5.73,2.79-7.3,7.92-1.5,4.88-.87,8.69,0,8.87s4.84-1.6,7-7.82C304.66,426.13,304.55,422.36,303.4,421.68Z" style="fill:#fff;opacity:0.2"></path><g style="opacity:0.2"><path d="M246.91,417.79l4.2,1.67c1.38.57,2.77,1.14,4.18,1.67s2.8,1.07,4.22,1.52c.71.23,1.41.46,2.12.63s1.54.35,2.25.58a66.08,66.08,0,0,1,8.35,3.56c2.67,1.34,5.31,2.74,7.83,4.29l-8.27-3.54c-2.76-1.15-5.51-2.36-8.33-3.28-.72-.24-1.34-.38-2.15-.58s-1.5-.43-2.22-.69c-1.44-.54-2.84-1.1-4.2-1.74A86.82,86.82,0,0,1,246.91,417.79Z"></path><path d="M252.18,419.38q3.28.15,6.53.62a53.15,53.15,0,0,1,6.45,1.24,28.62,28.62,0,0,1,5.95,2.65,52.57,52.57,0,0,1,5.35,3.39c-2-.87-3.9-1.76-5.82-2.65a41.92,41.92,0,0,0-5.84-2.35c-2-.56-4.17-1-6.28-1.45S254.29,419.9,252.18,419.38Z"></path><path d="M278.09,425.12a24.47,24.47,0,0,0,3.52,3.22,17,17,0,0,0,4.16,2.39,13.28,13.28,0,0,0,4.7,1,6.7,6.7,0,0,0,2.26-.37,2.52,2.52,0,0,0,.85-.47.36.36,0,0,0,.07-.07s0,0,0,0v-.07a1.75,1.75,0,0,0-.11-.42,7.19,7.19,0,0,0-2.74-3.31,4.93,4.93,0,0,0-2.08-.78,18.15,18.15,0,0,0-2.44-.14,4,4,0,0,0-2.11.49c-.44.25.3.89.92,1.31a11.71,11.71,0,0,0,2.13,1.14,5.57,5.57,0,0,0,2.43.46,5.21,5.21,0,0,1-2.54-.19,12.29,12.29,0,0,1-2.37-1,5.76,5.76,0,0,1-1-.77,1.23,1.23,0,0,1-.37-.65.86.86,0,0,1,.26-.78,4.49,4.49,0,0,1,2.63-.88,14.54,14.54,0,0,1,2.64,0,6.09,6.09,0,0,1,2.61.88,8.15,8.15,0,0,1,3.25,3.83,2.44,2.44,0,0,1,.16.67c0,.07,0,.13,0,.21a1.67,1.67,0,0,1-.08.32,1.42,1.42,0,0,1-.3.39,3.67,3.67,0,0,1-1.28.72,7.78,7.78,0,0,1-2.73.41,13,13,0,0,1-5.09-1.24A17.83,17.83,0,0,1,278.09,425.12Z"></path><path d="M296.39,427.58a31.32,31.32,0,0,0-5.64-3.38,20.63,20.63,0,0,0-3.08-1.11,17.58,17.58,0,0,0-3.26-.51c-2.23-.2-4.49-.06-6.83-.14a16.64,16.64,0,0,1-6.72-1.52,23.23,23.23,0,0,0,6.73.67,56.94,56.94,0,0,1,6.93-.1,15.36,15.36,0,0,1,6.7,2A18.92,18.92,0,0,1,296.39,427.58Z"></path><path d="M268.17,413.43a82.07,82.07,0,0,1,8.07,1.56,41.19,41.19,0,0,1,7.83,2.56,47.85,47.85,0,0,0,7.34,3.07l7.67,2.64a79.82,79.82,0,0,1-8-1.85,35.66,35.66,0,0,1-7.64-2.92,58.59,58.59,0,0,0-7.49-2.7Z"></path><path d="M284,419.72c-2.34-.13-4.67-.37-7-.65-1.17-.17-2.32-.35-3.48-.6a13,13,0,0,1-1.74-.49,11.75,11.75,0,0,1-1.59-.78c-2-1.12-3.87-2.37-5.82-3.5a22.21,22.21,0,0,0-6-2.71,32.87,32.87,0,0,0-3.39-.47,8.27,8.27,0,0,0-3.19.23c-.42.18-.62.4-.64.75a1.71,1.71,0,0,0,.63,1,13.33,13.33,0,0,0,2.69,1.77,20.72,20.72,0,0,0,3.11,1.28,8.3,8.3,0,0,0,3.26.51,1,1,0,0,0,.57-.19c.07-.05,0-.28-.2-.46a6,6,0,0,0-1.26-1c-.95-.6-1.95-1.14-3-1.65a25.42,25.42,0,0,1,3.15,1.41,7.14,7.14,0,0,1,1.44,1,.83.83,0,0,1,.32.94,1.27,1.27,0,0,1-.93.5,8.89,8.89,0,0,1-3.62-.37A21.22,21.22,0,0,1,254,415a11.81,11.81,0,0,1-3-1.84,2.53,2.53,0,0,1-.95-1.69,1.6,1.6,0,0,1,.37-1,2.32,2.32,0,0,1,.89-.62,9,9,0,0,1,3.75-.37,32.18,32.18,0,0,1,3.55.45,13.81,13.81,0,0,1,3.39,1.26c1,.53,2,1.1,3,1.69,2,1.18,3.83,2.42,5.72,3.62a8.91,8.91,0,0,0,3,1.3c1.11.3,2.25.52,3.39.74C279.35,419,281.66,419.35,284,419.72Z"></path><path d="M267.51,419.42a46.59,46.59,0,0,1-9.45-.48,40.66,40.66,0,0,1-4.64-1,11.45,11.45,0,0,1-4.22-2,20.74,20.74,0,0,0,4.46,1.15c1.53.25,3.06.49,4.6.71C261.33,418.33,264.42,418.76,267.51,419.42Z"></path><path d="M278.86,428.66a58.59,58.59,0,0,0,5.84,4,29.2,29.2,0,0,0,3.14,1.64c1.09.51,2.23.88,3.42,1.31a12.18,12.18,0,0,1-3.79-.52,15.67,15.67,0,0,1-3.45-1.52,16.87,16.87,0,0,1-2.93-2.2A11.91,11.91,0,0,1,278.86,428.66Z"></path></g><path d="M284.68,313.84a1.38,1.38,0,1,0,2.75,0,1.38,1.38,0,0,0-2.75,0Z" style="fill:#FF7697"></path><path d="M269.92,254.66a1.38,1.38,0,0,0,2.75,0,1.38,1.38,0,1,0-2.75,0Z" style="fill:#FF7697"></path><path d="M217.23,304.85a1.38,1.38,0,0,0,1.68-2.18,1.36,1.36,0,0,0-1.93.25A1.38,1.38,0,0,0,217.23,304.85Z" style="fill:#FF7697"></path><path d="M204.88,389a1.38,1.38,0,1,0,1.38-1.38A1.37,1.37,0,0,0,204.88,389Z" style="fill:#FF7697"></path><path d="M291,379.68a1.38,1.38,0,1,0,1.38-1.38A1.37,1.37,0,0,0,291,379.68Z" style="fill:#FF7697"></path><path d="M282.82,322.85a1.87,1.87,0,1,0,1.86-1.86A1.86,1.86,0,0,0,282.82,322.85Z" style="fill:#FF7697"></path><path d="M224.72,289.4a1.86,1.86,0,1,0-.34-2.61A1.85,1.85,0,0,0,224.72,289.4Z" style="fill:#FF7697"></path><path d="M208.41,358.41a1.87,1.87,0,1,0,1.87-1.86A1.87,1.87,0,0,0,208.41,358.41Z" style="fill:#FF7697"></path><path d="M279.86,320.18a.81.81,0,1,0,.8-.8A.8.8,0,0,0,279.86,320.18Z" style="fill:#FF7697"></path><circle cx="287.55" cy="346.33" r="0.81" style="fill:#FF7697"></circle><path d="M297.28,372.27a.81.81,0,0,0,1.62,0,.81.81,0,0,0-1.62,0Z" style="fill:#FF7697"></path><path d="M205.71,352.63a.81.81,0,1,0,1.61,0,.81.81,0,1,0-1.61,0Z" style="fill:#FF7697"></path><path d="M290.79,294.61a.81.81,0,0,0,1.62,0,.81.81,0,0,0-1.62,0Z" style="fill:#FF7697"></path><path d="M253.59,287.12a.81.81,0,1,0,.81-.81A.81.81,0,0,0,253.59,287.12Z" style="fill:#FF7697"></path><path d="M247.52,275a.81.81,0,1,0,.8-.81A.8.8,0,0,0,247.52,275Z" style="fill:#FF7697"></path><path d="M220.47,410.3c5.76,3.64,26.47,6.31,26.47,6.31l5.42.09s13.54-3.24,15.49-3.9,6.62,1.43,8.76,0,12.44-10.75,13.13-13.49-3.48-12.6-3.59-14.54,2.73-13.76,3-17.65-11.29-23.21-12.33-26.34,3.35-14.56,3.35-14.56-9.55,10-9.24,12.34,4.65,7.78,4.88,9.48-5.91,13.75-5.7,15.44,3,7.27,2.7,9.73c0,0-1.41-5.7-4.35-7.52s-5.92-3.25-7.22-4.41-4.75-11-4.45-12.21,3-4.26,2.63-8.29-9-17.93-9-17.93,1.5,7.66,0,9.48-7,4.67-7.47,6.1,4.93,7.65,4.28,9.22-12.93,4-14.18,5.7-4.64,14.55-3.73,17,3.89,11.81,2.2,13.63-5.32,2.6-5.45,1.82,2.21-6.62,1.3-10.25-4.8-11.56-5.06-13.51,2.37-11.77,3.46-14.06-7.53,12.12-8,15.93,2.46,16.13,2.11,16.39-1.75-1.21-2.17-2,0-7.14,0-7.14-4.92,5.76-5.49,8.26,2.3,8.66,1.87,10.74-2.64,6.88-2.9,9.65S218.4,409,220.47,410.3Zm58.76-18.57c-.2,2.52-2.94,8-3.2,8.27,0,0,.61-4.07.65-5.67s-.91-3-1.82-6.23,2-7.31,2-7.31S279.49,388.45,279.23,391.73Zm-11.46,19s3.32-2.85,5-4.37,6.54-3.67,7.42-5.15,2.28-8.52,2.28-8.52,1.25,7.14.64,9.43-6.23,7.36-8,8.31S267.77,410.73,267.77,410.73Zm-36.24-21.57c-.18.35-2.71,5-2.84,7.42s1.3,5.54,2.34,7.14a29.12,29.12,0,0,1,2.16,5.76s-5.75-2.69-6.75-6.93S231.21,389.66,231.53,389.16Z" style="fill:#FF7697"></path><path d="M270.47,328.68s5.95-4.24,6.13-7.44-3.72-9.87-3.33-12.47a17.78,17.78,0,0,1,1.71-5s-6.3,4.32-6.27,7.87,3.75,9.17,3.4,10.9S270.47,328.68,270.47,328.68Z" style="fill:#FF7697"></path><path d="M234.88,348.16s1.38-4.22,1.19-5.88-2.18-3.87-2.18-3.87a4.64,4.64,0,0,0-.81,4.37C233.86,345.48,234.88,348.16,234.88,348.16Z" style="fill:#FF7697"></path><path d="M220.15,347.45a24,24,0,0,0,3.4-9c.46-4.1-1.72-9.26-2.46-10.59s-3.9-3.12-3.9-3.12,2.15,3.37,2.21,4.9-1.07,6.26-1.23,8.11S220.15,347.45,220.15,347.45Z" style="fill:#FF7697"></path><path d="M258.83,322.85s4.48-6.1,3.63-10.06-4.31-9.12-5.64-10.45-4.61-4.48-6-6.62-1.43-9.93,0-11.88a12,12,0,0,1,3.89-3.14,12.36,12.36,0,0,0-10,5.15c-3.9,5.46-8.9,26.62-6.56,31.42s8.89,9.54,8.89,9.54-1.75-8.37-1.17-10.45,6.82,0,8.38,1.26A45.21,45.21,0,0,1,258.83,322.85Z" style="fill:#FF7697"></path><path d="M269.12,352.77s2.76-2.85,2.17-5.32-4.09-6.17-4.28-7.34.81-5.91.81-5.91-3.54,6.69-2.76,8.77a50.11,50.11,0,0,1,1.49,5.19s-1.55-1-1.88-1.88A22.37,22.37,0,0,1,264,344s-2.66,3.31-1.82,5.65,5.46,6.81,5.46,6.81a16.57,16.57,0,0,1-.07-2.14C267.66,353.55,268.15,354,269.12,352.77Z" style="fill:#FF7697"></path><g style="opacity:0.4"><path d="M250.08,416.62s16.23-5.84,19.85-14.14c2.27-5.22-3.85-15.87-4.37-17.56s.16-8.17-.7-10.77-12.35-9.4-13.36-11.19,2-8.93,2-8.93-8.73,7.06-10,11.06,3.88,11.78,3.82,13.21-3,5.66-3,5.66S242,381,241.88,378.3s1.26-4.14,1-6-3.8-5.52-3.8-5.52,1.83,3.26.92,5.52-5.33,6.68-4.67,10.19,5.84,11.55,5.39,13.76a10.59,10.59,0,0,1-1.64,3.78,37.76,37.76,0,0,1-1.87-5.48c-.45-2.2-.93-5.12-.93-5.12s-2.67,14.41.07,18.47S250.08,416.62,250.08,416.62Z" style="fill:#fff"></path><path d="M254.4,316.22c.13-.26,1.87-4.18,1.94-6.33s-3.83-5-5.58-6.62-5.52-6.88-5.19-9.6.72-4.81.72-4.81-5.4,15.45-5.07,20.32a14,14,0,0,0,3.18,8s1-4.69,3.31-4.54C250.76,312.81,254.4,316.22,254.4,316.22Z" style="fill:#fff"></path><path d="M271.87,326.55s3.47-3.24,3.42-5.41-3.42-8.17-3.42-8.17,1.45,7,1.71,8.43S271.87,326.55,271.87,326.55Z" style="fill:#fff"></path><path d="M231.79,411.53s-7-4.38-8.33-5.53-3.22-7.36-3.09-8.59,2.4-6.73,2.4-8.25-4.61-6.9-4.61-6.9,1.49,5.11,1.23,6.35-6.26,8.39-5.89,11.05,6.09,7.47,7.73,8.55S231.79,411.53,231.79,411.53Z" style="fill:#fff"></path><path d="M281.47,383.15s4.68-12.12,4.25-15.32-5.86-15.32-5.86-15.32.39,10.34.83,12-.83,6.55-.83,6.55a41,41,0,0,1-2-4.84c-.3-1.3.93-6.32.93-6.32s-3.39,9-2.61,12.4S281.47,383.15,281.47,383.15Z" style="fill:#fff"></path></g></g><g id="freepik--Plants--inject-66"><path d="M247.93,468.71h-182a34.23,34.23,0,0,1-5.16-10c-1.54-5.54-.11-12.9,5.68-15.44,3.73-1.63,7.74-.27,11.59-.17,1.17,0,2.45-.12,3.09-1.23a3.5,3.5,0,0,0,.28-2.58c-.49-2-2.39-3.24-4-4.32a.47.47,0,0,1-.09-.73,9.39,9.39,0,0,1,11.75-.28c2-2.12,1.12-5.31-.18-7.62-1.4-2.48-3.64-4.35-5.25-6.69a8.62,8.62,0,0,1-1.77-6.29,9.66,9.66,0,0,1,3.85-5.67c3.12-2.49,8.51-5.3,12.19-2.34,4,3.23,1.45,9.26,4.07,13.19a4.35,4.35,0,0,0,3.11,2.21,3.48,3.48,0,0,0,2.84-1.85c.94-1.32,1.69-2.92,3.28-3.48-.43-4-1.47-8-1.86-12-.56-5.83.75-13.39,6.85-15.88a9.19,9.19,0,0,1,7.46.1,7.5,7.5,0,0,1,3.86,6.64c.15,3.45-1,6.85-.61,10.3.26,2.11,1.28,4.34,3.81,3.85,1.77-.34,3.2-1.53,4.65-2.53,1.86-1.3,5.07-2.72,7-.81,1.16,1.12,1,2.9,2,4.11s2.73,1.46,4.21,1.48c3,.05,6-.7,9.06-.44a19.79,19.79,0,0,1,8.27,2.46,13.41,13.41,0,0,1,5.57,6c1,2.21,2.81,7.36,6.13,5.09,1.39-1,2.21-2.75,3.06-4.16s1.72-2.89,2.66-4.27a19.42,19.42,0,0,1,6.59-6.47,13.13,13.13,0,0,1,16.47,3.59,13.48,13.48,0,0,1,2.62,8.66c-.2,3.6-2.64,6.62-2.8,10.18-.06,1.64.41,3.6,1.93,4.5,1.88,1.11,4.2.1,6.12-.34s5.29-.22,6.16,2.13a3.23,3.23,0,0,1-.65,3c-.41.56-.91,1.05-1.27,1.64-.49.83-.4,1.2.38,1.71,2.25,1.51,5.32,1,7.89,1.22C241.9,446.65,247.25,464.47,247.93,468.71Z" style="fill:#263238"></path><path d="M119.22,439c-2.22,10.06-4.42,19.94-1.81,29.73h-2.09c-.77-1.94-1.51-3.9-2.27-5.85-7.49-3.49-15.55-.68-23.46-1.65-6.17-.76-12.74-3.76-16.67-8.71a.34.34,0,0,1,.48-.49,36.82,36.82,0,0,0,11,6.31c-.84-1-1.64-2-2.55-2.94-1.33-1.35-2.81-2.49-4.24-3.74-.08-.06,0-.19.12-.14A29.22,29.22,0,0,1,82.23,455a24.46,24.46,0,0,1,3.5,3.69,28.25,28.25,0,0,0,8,1.12c6.21,0,13.16-1.4,18.78,1.76-.48-1.18-1-2.36-1.48-3.53A107.56,107.56,0,0,0,103.39,444c-2.87-4.47-5.84-8.9-7.93-13.81a56.2,56.2,0,0,1-3.76-14.76c0-.27.36-.39.41-.11,1.6,8.9,5.92,16.58,10.61,24.1-1.44-4.35-2.62-8.78-4.45-13-.13-.3.3-.57.46-.26,2.53,5.09,5.25,10.78,6,16.5.32.5.64,1,1,1.51A99.91,99.91,0,0,1,114.25,461c-.32-6.26,1-12.84,2.28-18.58,1.45-6.48,2.84-12.9,3-19.57,0-.6,0-1.18,0-1.77a46.42,46.42,0,0,1-4.41-24.45.42.42,0,0,1,.84,0,75.55,75.55,0,0,0,1,13.6,57.27,57.27,0,0,0,2.54,8.8,150.67,150.67,0,0,0-1.44-15.78c-.05-.44.65-.5.76-.1C122.22,415,121.85,427.06,119.22,439Z" style="fill:#455a64"></path><path d="M159.69,425.42a74.68,74.68,0,0,1-4.66,8,35.27,35.27,0,0,1-1.85,6.38,23.71,23.71,0,0,1-4.83,7.54c-2.5,2.64-5,4.93-5.73,8.47,2,4.09,3.57,8.43,3.6,12.88h-1.5c-1.28-8.15-5.42-14.82-9.16-22.24-3.27-6.52-6-15-2.74-22.06.18-.41.78-.11.69.29-2.23,9.42,1.74,17.33,6.14,25.45.68,1.26,1.38,2.55,2.06,3.86a11.31,11.31,0,0,1,2.28-4.45c2.22-2.81,4.86-5.09,6.55-8.32,3.74-7.12,3.14-14.82,4.19-22.51.06-.43.63-.24.67.09a46.5,46.5,0,0,1,0,12.47A47.78,47.78,0,0,1,159,425,.38.38,0,0,1,159.69,425.42Z" style="fill:#455a64"></path><path d="M198.6,420.42a25.24,25.24,0,0,1-4.87,11c-1.9,2.49-4.85,4.08-6.7,6.56-1.58,3.31-3.38,6.5-5.18,9.69-1.91,3.38-5.43,7.94-3.74,12,.08.21-.08.34-.26.36a13.75,13.75,0,0,1,3.18,8.72h-.89c-1-11.79-17.75-14.92-17.9-27.09,0-.56.88-.69,1-.13,1.25,6.61,6.41,10.31,11.06,14.61a34.31,34.31,0,0,1,2.77,2.88c-1.16-2.46-.33-5.15.84-7.58,1.85-3.86,4.14-7.51,6.13-11.29a76.61,76.61,0,0,0,5.37-12.25c1.39-4.43,1.62-8.72,1.74-13.32a.24.24,0,0,1,.47-.07c1.57,6.57-.55,14.08-3.13,20.26,1-.91,2-1.77,2.87-2.72,3.1-3.43,4.69-7.63,6.38-11.83A.46.46,0,0,1,198.6,420.42Z" style="fill:#455a64"></path><path d="M232.39,455.84c-4,.57-7.84,1.51-11.88,1.73a59.43,59.43,0,0,1-12.36-.63c-5.05-.78-10.12-2-15.11-1.43a40.79,40.79,0,0,0,4.41-2.27c4.7-2.89,9.22-7.68,11.13-12.92.2-.53-.55-.73-.83-.36-2.32,3-4.23,6.12-7.11,8.7-3.19,2.86-6.89,4.53-10.67,6.44a20.59,20.59,0,0,0-7.43,5.59c-.52.69-3,4.15-1.49,4.9a.21.21,0,0,0,.26,0l.09-.1c.06-.07,0-.21-.06-.23-.33-.06,2.66-4.19,2.71-4.23a18.66,18.66,0,0,1,3.75-2.87c.69-.41,1.4-.78,2.12-1.14,6.81-1.31,13.78,1.17,20.55,2,7.1.85,15.53.77,22.23-2A.58.58,0,0,0,232.39,455.84Z" style="fill:#455a64"></path><path d="M143.74,465.09c-2-2.93-5.29-4.57-8.23-6.41-4.16-2.61-7-5.61-8.59-10.32-.14-.4-.85-.37-.79.11,1.14,9.28,10.73,11.94,17,17.08C143.45,465.8,144,465.47,143.74,465.09Z" style="fill:#455a64"></path><path d="M102.09,459.23c-1.43-3.54-4.86-6-7.63-8.49a29.52,29.52,0,0,1-4.37-4.5c-1.75-2.37-2.61-5.13-3.6-7.87a.26.26,0,0,0-.5.14c1,4.46,2.67,8.46,6,11.73s6.7,5.86,9.73,9.23C101.84,459.64,102.19,459.46,102.09,459.23Z" style="fill:#455a64"></path><path d="M110.71,424a1.21,1.21,0,0,1-2.25-.31.78.78,0,0,1,0-.26l0-.05a1.33,1.33,0,0,1,.08-.7,1.24,1.24,0,0,1,.93-.88C110.53,421.58,111.3,423,110.71,424Z" style="fill:#37474f"></path><path d="M226.32,452.33a1.21,1.21,0,0,1-2.25-.3,1.28,1.28,0,0,1,0-.27.11.11,0,0,0,0-.05,1.24,1.24,0,0,1,.08-.7,1.26,1.26,0,0,1,.92-.88A1.43,1.43,0,0,1,226.32,452.33Z" style="fill:#37474f"></path><path d="M113.8,425.81a.42.42,0,0,0,0-.1h0a.81.81,0,0,0-.19-.74.64.64,0,0,0-.16-.11.6.6,0,0,0-.95.23c-.33.7.47,1.62,1.07,1a.63.63,0,0,0,.16-.23l0,0A.06.06,0,0,0,113.8,425.81Z" style="fill:#37474f"></path><path d="M185.59,420.2a.3.3,0,0,0,0-.1h0a.82.82,0,0,0-.66-.39.72.72,0,0,0-.19,0,.6.6,0,0,0-.51.83c.26.73,1.48.82,1.49,0a.86.86,0,0,0,0-.27,0,0,0,0,0,0,0A.05.05,0,0,0,185.59,420.2Z" style="fill:#37474f"></path><path d="M114.14,421.4a.49.49,0,0,0-.63.22.37.37,0,0,0,0,.29.47.47,0,0,0,.91.16A.54.54,0,0,0,114.14,421.4Z" style="fill:#37474f"></path><path d="M139.5,407.67a.47.47,0,0,0-.62.22.34.34,0,0,0,0,.29.46.46,0,0,0,.9.17A.54.54,0,0,0,139.5,407.67Z" style="fill:#37474f"></path><path d="M187.93,416.05a.48.48,0,0,0-.29.59.36.36,0,0,0,.18.24.47.47,0,0,0,.76-.52A.53.53,0,0,0,187.93,416.05Z" style="fill:#37474f"></path><path d="M30,468.71H154.54a23.27,23.27,0,0,0,3.53-6.86c1.05-3.79.07-8.83-3.88-10.56-2.55-1.12-5.3-.19-7.93-.12a2.18,2.18,0,0,1-2.12-.84,2.44,2.44,0,0,1-.19-1.76c.34-1.35,1.64-2.22,2.72-3a.32.32,0,0,0,.06-.5,6.42,6.42,0,0,0-8-.19c-1.35-1.45-.76-3.63.13-5.21s2.49-3,3.59-4.58a5.92,5.92,0,0,0,1.21-4.3A6.61,6.61,0,0,0,141,427c-2.13-1.7-5.81-3.62-8.34-1.6-2.74,2.21-1,6.33-2.78,9a2.94,2.94,0,0,1-2.12,1.5,2.37,2.37,0,0,1-1.95-1.26c-.64-.91-1.15-2-2.24-2.38.29-2.76,1-5.46,1.27-8.22.38-4-.51-9.16-4.68-10.86a6.31,6.31,0,0,0-5.11.07,5.1,5.1,0,0,0-2.63,4.54c-.11,2.36.69,4.69.41,7.05-.17,1.44-.88,3-2.6,2.63a8.6,8.6,0,0,1-3.18-1.73c-1.28-.89-3.47-1.86-4.81-.56-.8.77-.68,2-1.37,2.82A3.67,3.67,0,0,1,98,429c-2.09,0-4.1-.48-6.2-.3a13.57,13.57,0,0,0-5.66,1.68,9.23,9.23,0,0,0-3.81,4.13c-.7,1.51-1.92,5-4.19,3.48A8.59,8.59,0,0,1,76,435.14c-.59-1-1.18-2-1.82-2.92a13.45,13.45,0,0,0-4.51-4.43,9,9,0,0,0-11.27,2.46,9.18,9.18,0,0,0-1.79,5.92c.14,2.46,1.81,4.53,1.91,7a3.33,3.33,0,0,1-1.32,3.08c-1.28.76-2.86.07-4.18-.23s-3.62-.15-4.22,1.46a2.22,2.22,0,0,0,.45,2.06c.28.38.62.72.87,1.12.34.57.27.82-.26,1.17-1.54,1-3.64.67-5.4.84C34.15,453.62,30.49,465.81,30,468.71Z" style="fill:#37474f"></path><path d="M118.05,448.38c1.52,6.87,3,13.63,1.25,20.33h1.43c.52-1.33,1-2.67,1.55-4,5.12-2.39,10.64-.47,16-1.13a17.59,17.59,0,0,0,11.41-6,.23.23,0,0,0-.33-.33,25.28,25.28,0,0,1-7.55,4.31c.58-.67,1.13-1.37,1.75-2,.91-.92,1.92-1.7,2.9-2.55.05-.05,0-.14-.08-.1a20.35,20.35,0,0,0-3.06,2.42,16.31,16.31,0,0,0-2.39,2.52,19.67,19.67,0,0,1-5.51.77c-4.25,0-9-1-12.84,1.2.33-.81.66-1.61,1-2.41a73.51,73.51,0,0,1,5.26-9.62,65.5,65.5,0,0,0,5.42-9.44,38.75,38.75,0,0,0,2.57-10.1c0-.18-.24-.27-.28-.08-1.09,6.09-4,11.34-7.26,16.49,1-3,1.8-6,3-8.91.09-.21-.21-.4-.32-.19-1.73,3.49-3.59,7.38-4.11,11.29l-.66,1a69.1,69.1,0,0,0-5.84,11.51,48.68,48.68,0,0,0-1.56-12.7,70.64,70.64,0,0,1-2.08-13.4c0-.4,0-.8,0-1.2a31.86,31.86,0,0,0,3-16.73.29.29,0,0,0-.58,0,51,51,0,0,1-.69,9.31,40.26,40.26,0,0,1-1.74,6,103.68,103.68,0,0,1,1-10.8c0-.3-.45-.34-.52-.07C116,432,116.26,440.22,118.05,448.38Z" style="fill:#455a64"></path><path d="M90.38,439.1a51.82,51.82,0,0,0,3.18,5.49A24.09,24.09,0,0,0,94.83,449a16.09,16.09,0,0,0,3.3,5.15c1.71,1.81,3.42,3.38,3.92,5.8a20.94,20.94,0,0,0-2.46,8.81h1c.87-5.58,3.7-10.14,6.26-15.22,2.24-4.45,4.1-10.25,1.88-15.08-.13-.28-.54-.08-.48.19,1.52,6.45-1.19,11.86-4.2,17.42-.46.85-.94,1.74-1.4,2.64a7.71,7.71,0,0,0-1.56-3.05c-1.53-1.92-3.33-3.48-4.49-5.69-2.55-4.87-2.14-10.14-2.86-15.4,0-.29-.43-.16-.46.06a31.64,31.64,0,0,0,0,8.53,32.25,32.25,0,0,0-2.5-4.27A.26.26,0,0,0,90.38,439.1Z" style="fill:#455a64"></path><path d="M63.76,435.68a17.29,17.29,0,0,0,3.33,7.5c1.3,1.71,3.32,2.79,4.59,4.49,1.08,2.26,2.3,4.45,3.54,6.63s3.71,5.43,2.56,8.2c-.06.14,0,.23.17.24a9.44,9.44,0,0,0-2.17,6h.61c.67-8.07,12.14-10.2,12.24-18.53,0-.38-.6-.47-.67-.09-.85,4.52-4.38,7.05-7.56,10a22,22,0,0,0-1.9,2c.8-1.68.22-3.52-.57-5.18-1.27-2.64-2.84-5.14-4.19-7.73a52.09,52.09,0,0,1-3.68-8.38,32.2,32.2,0,0,1-1.19-9.11.16.16,0,0,0-.32,0c-1.07,4.49.37,9.63,2.14,13.86-.66-.63-1.38-1.21-2-1.86-2.12-2.35-3.21-5.22-4.36-8.1A.32.32,0,0,0,63.76,435.68Z" style="fill:#455a64"></path><path d="M40.65,459.91c2.72.39,5.36,1,8.13,1.18a40.54,40.54,0,0,0,8.45-.43c3.45-.53,6.92-1.34,10.34-1a27.09,27.09,0,0,1-3-1.56,18.65,18.65,0,0,1-7.61-8.83c-.13-.36.38-.5.57-.24A41.39,41.39,0,0,0,62.36,455a32.23,32.23,0,0,0,7.3,4.4,14,14,0,0,1,5.09,3.83c.35.46,2.06,2.83,1,3.34a.14.14,0,0,1-.17,0l-.07-.07a.1.1,0,0,1,0-.16c.22,0-1.82-2.86-1.86-2.89a12.56,12.56,0,0,0-2.56-2c-.48-.27-1-.53-1.45-.77-4.66-.9-9.43.8-14.06,1.35-4.85.59-10.62.53-15.2-1.37A.39.39,0,0,1,40.65,459.91Z" style="fill:#455a64"></path><path d="M101.29,466.23c1.37-2,3.61-3.12,5.62-4.38a12.88,12.88,0,0,0,5.88-7.06c.09-.27.58-.25.54.07-.78,6.35-7.34,8.18-11.64,11.69C101.48,466.72,101.1,466.49,101.29,466.23Z" style="fill:#455a64"></path><path d="M129.77,462.22c1-2.42,3.33-4.13,5.22-5.8a19.79,19.79,0,0,0,3-3.08,20,20,0,0,0,2.46-5.38.18.18,0,0,1,.35.09,15.88,15.88,0,0,1-4.08,8c-2.19,2.18-4.58,4-6.66,6.32A.17.17,0,0,1,129.77,462.22Z" style="fill:#455a64"></path><path d="M123.88,438.13a.83.83,0,0,0,1.54-.21l0-.18v0a.77.77,0,0,0,0-.48.85.85,0,0,0-.63-.6A1,1,0,0,0,123.88,438.13Z" style="fill:#455a64"></path><path d="M44.8,457.51a.83.83,0,0,0,1.54-.21.57.57,0,0,0,0-.18s0,0,0,0a.77.77,0,0,0-.06-.48.84.84,0,0,0-.63-.6C44.93,455.85,44.4,456.81,44.8,457.51Z" style="fill:#455a64"></path><path d="M121.76,439.37a.24.24,0,0,1,0-.08h0a.56.56,0,0,1,.13-.51l.11-.07a.41.41,0,0,1,.65.15c.22.48-.33,1.11-.74.71a.64.64,0,0,1-.11-.16v0Z" style="fill:#455a64"></path><path d="M72.66,435.53l0-.07h0a.53.53,0,0,1,.45-.27l.13,0a.41.41,0,0,1,.35.57c-.17.5-1,.56-1,0a.58.58,0,0,1,0-.18v0Z" style="fill:#455a64"></path><path d="M121.53,436.35a.33.33,0,0,1,.43.15.24.24,0,0,1,0,.2.32.32,0,0,1-.62.11A.36.36,0,0,1,121.53,436.35Z" style="fill:#455a64"></path><path d="M104.18,427a.33.33,0,0,1,.43.15.24.24,0,0,1,0,.2.32.32,0,0,1-.62.11A.36.36,0,0,1,104.18,427Z" style="fill:#455a64"></path><path d="M71.06,432.69a.33.33,0,0,1,.2.4.26.26,0,0,1-.12.16.32.32,0,0,1-.52-.35A.35.35,0,0,1,71.06,432.69Z" style="fill:#455a64"></path><path d="M476.49,468.71h-133a25,25,0,0,1-3.77-7.33c-1.13-4.05-.08-9.43,4.15-11.29,2.72-1.19,5.66-.2,8.47-.12a2.33,2.33,0,0,0,2.26-.9,2.61,2.61,0,0,0,.21-1.88c-.36-1.45-1.75-2.37-2.91-3.16a.35.35,0,0,1-.06-.54,6.87,6.87,0,0,1,8.59-.2c1.44-1.55.81-3.88-.14-5.57s-2.66-3.18-3.83-4.88a6.35,6.35,0,0,1-1.3-4.6,7.11,7.11,0,0,1,2.82-4.15c2.28-1.82,6.21-3.87,8.91-1.71,2.92,2.36,1.05,6.77,3,9.64a3.17,3.17,0,0,0,2.27,1.61,2.53,2.53,0,0,0,2.08-1.34c.68-1,1.23-2.14,2.4-2.55-.32-2.94-1.08-5.83-1.36-8.78-.41-4.26.54-9.79,5-11.6a6.74,6.74,0,0,1,5.46.07,5.48,5.48,0,0,1,2.81,4.86c.11,2.52-.74,5-.44,7.52.19,1.55.94,3.17,2.78,2.82a9.29,9.29,0,0,0,3.4-1.86c1.36-.94,3.71-2,5.14-.59.84.82.73,2.13,1.46,3a3.91,3.91,0,0,0,3.07,1.08c2.23,0,4.38-.51,6.62-.32a14.63,14.63,0,0,1,6.05,1.79,9.9,9.9,0,0,1,4.07,4.42c.74,1.61,2.05,5.38,4.48,3.72a9.39,9.39,0,0,0,2.23-3c.63-1,1.26-2.11,1.95-3.12a14.22,14.22,0,0,1,4.81-4.73,9.6,9.6,0,0,1,12,2.63,9.83,9.83,0,0,1,1.92,6.33c-.15,2.62-1.94,4.84-2.05,7.43a3.58,3.58,0,0,0,1.41,3.29c1.37.81,3.07.08,4.47-.25s3.87-.16,4.51,1.56a2.38,2.38,0,0,1-.48,2.21c-.3.41-.66.76-.93,1.2-.36.61-.29.87.28,1.24,1.65,1.11,3.88.72,5.76.9C472.08,452.59,476,465.61,476.49,468.71Z" style="fill:#455a64"></path><path d="M382.43,447c-1.63,7.35-3.24,14.57-1.33,21.73h-1.53c-.56-1.42-1.1-2.85-1.66-4.27-5.47-2.56-11.36-.5-17.14-1.21-4.51-.56-9.31-2.75-12.19-6.37a.25.25,0,0,1,.36-.35,27.16,27.16,0,0,0,8.06,4.61c-.61-.72-1.2-1.47-1.87-2.15-1-1-2.05-1.82-3.09-2.73a.07.07,0,0,1,.08-.11,21.52,21.52,0,0,1,3.27,2.59,17.25,17.25,0,0,1,2.56,2.7,20.68,20.68,0,0,0,5.88.81c4.53,0,9.61-1,13.72,1.29-.35-.86-.7-1.73-1.08-2.58a79.83,79.83,0,0,0-5.62-10.27,69.77,69.77,0,0,1-5.79-10.1,41.35,41.35,0,0,1-2.75-10.79c0-.19.26-.28.3-.08,1.17,6.51,4.32,12.12,7.76,17.62-1.06-3.18-1.92-6.42-3.26-9.52-.1-.23.22-.42.34-.2,1.85,3.73,3.83,7.89,4.4,12.06.23.37.46.74.7,1.1a74,74,0,0,1,6.24,12.3c-.24-4.57.74-9.38,1.67-13.58a76.1,76.1,0,0,0,2.21-14.3c0-.44,0-.86,0-1.29A34,34,0,0,1,379.46,416a.31.31,0,0,1,.62,0,55.25,55.25,0,0,0,.73,9.94,43,43,0,0,0,1.86,6.43,109.51,109.51,0,0,0-1.05-11.53c0-.33.48-.37.56-.08C384.61,429.45,384.35,438.27,382.43,447Z" style="fill:#37474f"></path><path d="M412,437.07a55.12,55.12,0,0,1-3.4,5.86,25.33,25.33,0,0,1-1.36,4.66,17,17,0,0,1-3.53,5.51c-1.83,1.94-3.65,3.61-4.19,6.2a22.07,22.07,0,0,1,2.63,9.41h-1.09c-.93-6-4-10.83-6.69-16.26-2.4-4.76-4.39-11-2-16.12.14-.3.58-.08.51.21-1.63,6.89,1.27,12.67,4.48,18.61.5.91,1,1.86,1.51,2.82a8,8,0,0,1,1.67-3.25c1.62-2.06,3.55-3.73,4.79-6.09,2.73-5.2,2.29-10.83,3.06-16.45,0-.31.46-.18.49.07a33.9,33.9,0,0,1,0,9.11,36.9,36.9,0,0,1,2.67-4.57A.28.28,0,0,1,412,437.07Z" style="fill:#37474f"></path><path d="M440.44,433.42a18.48,18.48,0,0,1-3.56,8c-1.39,1.83-3.55,3-4.9,4.8-1.15,2.42-2.47,4.75-3.78,7.08s-4,5.8-2.74,8.76c.06.16-.06.25-.19.26a10,10,0,0,1,2.32,6.38H427c-.73-8.62-13-10.9-13.09-19.8,0-.4.65-.51.72-.09.91,4.82,4.69,7.53,8.08,10.68a23.58,23.58,0,0,1,2,2.09c-.85-1.79-.24-3.76.61-5.53,1.36-2.82,3-5.49,4.48-8.25a54.81,54.81,0,0,0,3.92-9,34.41,34.41,0,0,0,1.28-9.73c0-.2.3-.25.34-.05,1.15,4.8-.4,10.29-2.29,14.81.71-.67,1.47-1.3,2.1-2,2.27-2.51,3.43-5.58,4.66-8.65A.34.34,0,0,1,440.44,433.42Z" style="fill:#37474f"></path><path d="M465.14,459.3c-2.92.42-5.73,1.11-8.69,1.27a43.29,43.29,0,0,1-9-.46c-3.69-.57-7.4-1.43-11.05-1a29.88,29.88,0,0,0,3.23-1.67,19.94,19.94,0,0,0,8.13-9.44c.15-.39-.4-.53-.61-.26-1.69,2.21-3.09,4.47-5.19,6.36-2.33,2.09-5,3.31-7.8,4.7a15.21,15.21,0,0,0-5.43,4.09c-.38.5-2.2,3-1.09,3.58a.15.15,0,0,0,.19,0l.07-.07c0-.05,0-.16-.05-.17-.24,0,1.95-3.06,2-3.1a14.05,14.05,0,0,1,2.75-2.09c.5-.3,1-.57,1.54-.83,5-1,10.08.85,15,1.45,5.19.62,11.35.56,16.25-1.47A.43.43,0,0,0,465.14,459.3Z" style="fill:#37474f"></path><path d="M400.34,466.06c-1.46-2.14-3.86-3.34-6-4.68a13.78,13.78,0,0,1-6.28-7.54c-.1-.3-.62-.27-.58.07.83,6.79,7.84,8.74,12.44,12.49C400.13,466.58,400.54,466.34,400.34,466.06Z" style="fill:#37474f"></path><path d="M369.91,461.78c-1.05-2.59-3.56-4.41-5.58-6.2a16,16,0,0,1-5.83-9,.19.19,0,1,0-.36.1,17,17,0,0,0,4.35,8.57c2.34,2.32,4.9,4.28,7.12,6.74A.18.18,0,0,0,369.91,461.78Z" style="fill:#37474f"></path><path d="M376.21,436a.89.89,0,0,1-1.65-.22.68.68,0,0,1,0-.19s0,0,0,0a.86.86,0,0,1,.06-.51.92.92,0,0,1,.67-.65A1.05,1.05,0,0,1,376.21,436Z" style="fill:#37474f"></path><path d="M460.7,456.74a.89.89,0,0,1-1.65-.22.69.69,0,0,1,0-.2v0a.9.9,0,0,1,.06-.52.91.91,0,0,1,.67-.64C460.56,455,461.13,456,460.7,456.74Z" style="fill:#37474f"></path><path d="M378.47,437.36a.24.24,0,0,1,0-.08h0a.59.59,0,0,0-.14-.54.25.25,0,0,0-.12-.08.44.44,0,0,0-.69.16c-.24.51.35,1.19.79.76a.62.62,0,0,0,.11-.17l0,0A0,0,0,0,1,378.47,437.36Z" style="fill:#37474f"></path><path d="M430.93,433.25l0-.07h0a.59.59,0,0,0-.48-.29l-.14,0a.44.44,0,0,0-.37.6c.19.54,1.08.6,1.09,0a.45.45,0,0,0,0-.2v0Z" style="fill:#37474f"></path><path d="M378.71,434.13a.36.36,0,0,0-.46.16.36.36,0,0,0,.63.34A.39.39,0,0,0,378.71,434.13Z" style="fill:#37474f"></path><path d="M397.25,424.1a.35.35,0,0,0-.46.16.26.26,0,0,0,0,.21.34.34,0,0,0,.66.12A.39.39,0,0,0,397.25,424.1Z" style="fill:#37474f"></path><path d="M432.64,430.22a.34.34,0,0,0-.21.43.3.3,0,0,0,.13.18.34.34,0,0,0,.55-.38A.39.39,0,0,0,432.64,430.22Z" style="fill:#37474f"></path></g></svg>
