<svg width="788" height="214" viewBox="0 0 788 214" fill="none" xmlns="http://www.w3.org/2000/svg">
<g clip-path="url(#clip0_10_2)">
<path d="M476.75 88.9222C491.021 88.9222 502.589 78.0404 502.589 64.617C502.589 51.1936 491.021 40.3118 476.75 40.3118C462.479 40.3118 450.91 51.1936 450.91 64.617C450.91 78.0404 462.479 88.9222 476.75 88.9222Z" fill="#3F3D56"/>
<path d="M460.482 66.568C461.124 65.8454 461.927 65.2641 462.833 64.8652C463.74 64.4663 464.729 64.2595 465.73 64.2595C466.731 64.2595 467.72 64.4663 468.627 64.8652C469.534 65.2641 470.336 65.8454 470.978 66.568C472.076 65.582 472.835 64.3092 473.157 62.9137C473.479 61.5182 473.349 60.064 472.785 58.7385C472.22 57.4129 471.246 56.2768 469.989 55.4766C468.732 54.6764 467.248 54.2487 465.73 54.2487C464.212 54.2487 462.729 54.6764 461.471 55.4766C460.214 56.2768 459.24 57.4129 458.676 58.7385C458.111 60.064 457.981 61.5182 458.303 62.9137C458.625 64.3092 459.384 65.582 460.482 66.568V66.568Z" fill="white"/>
<path d="M481.002 66.568C481.644 65.8454 482.446 65.2641 483.353 64.8652C484.26 64.4663 485.249 64.2595 486.25 64.2595C487.251 64.2595 488.239 64.4663 489.146 64.8652C490.053 65.2641 490.856 65.8454 491.497 66.568C492.595 65.582 493.354 64.3092 493.676 62.9137C493.999 61.5182 493.869 60.064 493.304 58.7385C492.74 57.4129 491.766 56.2768 490.508 55.4766C489.251 54.6764 487.768 54.2487 486.25 54.2487C484.732 54.2487 483.248 54.6764 481.991 55.4766C480.733 56.2768 479.76 57.4129 479.195 58.7385C478.63 60.064 478.501 61.5182 478.823 62.9137C479.145 64.3092 479.904 65.582 481.002 66.568Z" fill="white"/>
<path d="M463.138 61.4221C464.581 61.4221 465.752 60.3212 465.752 58.9631C465.752 57.605 464.581 56.5041 463.138 56.5041C461.694 56.5041 460.523 57.605 460.523 58.9631C460.523 60.3212 461.694 61.4221 463.138 61.4221Z" fill="#3F3D56"/>
<path d="M483.656 61.4221C485.1 61.4221 486.271 60.3212 486.271 58.9631C486.271 57.605 485.1 56.5041 483.656 56.5041C482.213 56.5041 481.042 57.605 481.042 58.9631C481.042 60.3212 482.213 61.4221 483.656 61.4221Z" fill="#3F3D56"/>
<path d="M458.13 73.5527C459.809 73.5527 461.17 72.2725 461.17 70.6933C461.17 69.1141 459.809 67.8339 458.13 67.8339C456.451 67.8339 455.09 69.1141 455.09 70.6933C455.09 72.2725 456.451 73.5527 458.13 73.5527Z" fill="#FF6584"/>
<path d="M493.089 73.5527C494.768 73.5527 496.129 72.2725 496.129 70.6933C496.129 69.1141 494.768 67.8339 493.089 67.8339C491.411 67.8339 490.05 69.1141 490.05 70.6933C490.05 72.2725 491.411 73.5527 493.089 73.5527Z" fill="#FF6584"/>
<path d="M475.61 64.9743L473.33 74.2675L477.13 70.6933L475.61 64.9743Z" fill="#FF6584"/>
<path d="M487.325 100.717L484.736 98.6738L484.797 100.717H483.993L483.928 98.5566L480.434 100.717H478.971L483.902 97.6682L483.711 91.2655L483.569 86.43L484.371 86.4093L484.515 91.2655L484.706 97.6625L488.575 100.717H487.325Z" fill="#3F3D56"/>
<path d="M475.164 100.717L472.576 98.6738L472.636 100.717H471.834L471.77 98.5566L468.275 100.717H466.812L471.742 97.6682L471.551 91.2655L471.408 86.43L472.212 86.4093L472.357 91.2655L472.546 97.6625L476.414 100.717H475.164Z" fill="#3F3D56"/>
<path d="M477.13 38.5246C476.421 38.5246 475.795 39.0427 475.377 39.8384C475.009 38.6419 474.234 37.8098 473.33 37.8098C473.268 37.8155 473.207 37.8252 473.147 37.8386C472.8 36.5612 471.992 35.6652 471.05 35.6652C469.791 35.6652 468.77 37.2655 468.77 39.2395C468.77 41.2135 469.791 42.8138 471.05 42.8138C471.111 42.8081 471.172 42.7984 471.233 42.785C471.58 44.0625 472.388 44.9584 473.33 44.9584C474.039 44.9584 474.664 44.4403 475.083 43.6446C475.451 44.8411 476.226 45.6732 477.13 45.6732C478.389 45.6732 479.41 44.073 479.41 42.0989C479.41 40.1249 478.389 38.5246 477.13 38.5246Z" fill="#3F3D56"/>
<path d="M452.496 73.8276C451.498 73.8276 450.51 73.6427 449.588 73.2834C448.666 72.9242 447.828 72.3976 447.122 71.7338C446.417 71.07 445.857 70.2819 445.475 69.4146C445.093 68.5473 444.896 67.6178 444.896 66.679V63.1047C444.896 61.2088 445.697 59.3905 447.122 58.0499C448.548 56.7093 450.481 55.9561 452.496 55.9561V55.9561V73.8276Z" fill="#6C63FF"/>
<path d="M501.003 55.9561C502.001 55.9561 502.99 56.141 503.912 56.5003C504.834 56.8595 505.672 57.3861 506.377 58.0499C507.083 58.7137 507.643 59.5017 508.025 60.369C508.407 61.2363 508.603 62.1659 508.603 63.1047V66.679C508.603 67.6178 508.407 68.5473 508.025 69.4146C507.643 70.2819 507.083 71.07 506.377 71.7338C505.672 72.3976 504.834 72.9242 503.912 73.2834C502.99 73.6427 502.001 73.8276 501.003 73.8276V73.8276V55.9561H501.003Z" fill="#6C63FF"/>
<path d="M504.986 63.6664H503.78C503.78 49.282 491.339 37.5795 476.046 37.5795C460.754 37.5795 448.313 49.282 448.313 63.6664H447.107C447.107 48.6566 460.089 36.4453 476.046 36.4453C492.004 36.4453 504.986 48.6566 504.986 63.6664Z" fill="#6C63FF"/>
<path d="M434.666 41.8061L434.666 41.8057L434.1 41.5837L431.71 40.6333L430.853 40.2926L430.787 40.4488L429.636 43.1821L432.875 44.4716L432.892 44.4861L432.674 44.9702C432.644 45.0145 432.619 45.0613 432.598 45.1099C432.445 45.4731 432.734 45.8343 433.007 45.936C433.28 46.0376 433.625 45.8257 433.778 45.4626C433.929 45.1044 433.781 44.6494 433.515 44.5394L433.516 44.539L432.949 44.3171L431.011 43.6085L432.118 40.9788L431.954 40.9176L430.847 43.5483L430.607 43.4607L431.719 40.8197L431.748 40.8314L434.026 41.7383L434.043 41.7528L433.825 42.2369C433.795 42.2811 433.77 42.3279 433.749 42.3766C433.596 42.7397 433.885 43.1009 434.158 43.2026C434.431 43.3043 434.776 43.0924 434.929 42.7292C435.08 42.3711 434.932 41.916 434.666 41.8061Z" fill="#3F3D56"/>
<path d="M445.877 48.5165C444.701 47.8842 444.936 46.4965 444.936 46.4965C444.907 45.5951 444.115 45.7227 444.115 45.7227L443.827 45.7845C443.693 45.7261 443.546 45.7005 443.398 45.71L442.96 45.7794C443.958 46 443.876 46.7854 443.876 46.7854L444.016 47.7038L441.401 46.7113L441.701 46.0453C441.742 45.9838 441.778 45.9189 441.807 45.8513C442.019 45.3469 441.618 44.8452 441.239 44.704C440.86 44.5627 440.38 44.8571 440.168 45.3614C439.958 45.8589 440.163 46.4909 440.532 46.6436L440.532 46.6442L441.319 46.9524L441.325 46.935L445.877 48.5165ZM444.549 46.9029L444.633 47.7819C444.336 47.3911 444.197 46.914 444.24 46.4358C444.233 46.2656 444.172 46.1014 444.065 45.9642C444.23 46.0635 444.362 46.2037 444.447 46.3694C444.533 46.535 444.568 46.7197 444.549 46.9029V46.9029Z" fill="#3F3D56"/>
<path d="M425.926 35.5162L425.926 35.5156L425.139 35.2074L421.851 34.005L422.681 33.3105C422.843 33.1069 423.083 32.9702 423.35 32.9291C423.617 32.8879 423.891 32.9455 424.114 33.0897L423.856 32.7296C423.856 32.7296 423.372 32.1267 422.694 32.7646C422.694 32.7646 421.855 33.9275 420.538 33.6311L425.037 35.4221L425.061 35.4422L424.757 36.1145C424.716 36.176 424.68 36.241 424.652 36.3086C424.439 36.8129 424.84 37.3146 425.219 37.4559C425.599 37.5971 426.078 37.3028 426.291 36.7984C426.5 36.3009 426.295 35.6689 425.926 35.5162Z" fill="#3F3D56"/>
<path d="M437.965 31.5809L437.661 32.2532C437.62 32.3147 437.584 32.3797 437.556 32.4473C437.343 32.9516 437.744 33.4533 438.123 33.5946C438.503 33.7358 438.982 33.4415 439.195 32.9371C439.404 32.4396 439.199 31.8076 438.83 31.6549L438.83 31.6543L438.043 31.3461L435.352 30.362L436.89 26.7095L436.662 26.6246L435.123 30.2784L434.79 30.1567L436.335 26.4886L436.376 26.5048L439.539 27.7644L439.563 27.7845L439.26 28.4568C439.218 28.5184 439.183 28.5833 439.154 28.6509C438.942 29.1553 439.343 29.6569 439.722 29.7982C440.101 29.9394 440.581 29.6451 440.793 29.1407C441.002 28.6433 440.798 28.0113 440.428 27.8586L440.429 27.8579L439.642 27.5498L436.426 26.2712L436.426 26.2712L436.322 26.2297L435.132 25.7565L433.442 29.7698L437.941 31.5608L437.965 31.5809Z" fill="#3F3D56"/>
<path d="M423.708 11.0274L423.709 11.0264L422.354 10.4958L416.694 8.42598L418.122 7.23033C418.122 7.23033 419.073 5.99001 420.589 6.8503L420.145 6.23048C420.145 6.23048 419.312 5.19251 418.145 6.29071C418.145 6.29071 416.702 8.29252 414.434 7.78225L422.178 10.8653L422.219 10.9L421.697 12.0574C421.625 12.1632 421.565 12.2751 421.515 12.3914C421.149 13.2596 421.84 14.1232 422.492 14.3664C423.145 14.6096 423.971 14.1028 424.336 13.2346C424.697 12.3783 424.344 11.2903 423.708 11.0274Z" fill="#3F3D56"/>
<path d="M427.865 28.4145C425.054 26.9026 425.616 23.5849 425.616 23.5849C425.546 21.4296 423.652 21.7347 423.652 21.7347L422.963 21.8826C422.643 21.7429 422.291 21.6815 421.939 21.7044L420.891 21.8703C423.277 22.3977 423.081 24.2756 423.081 24.2756L423.416 26.4714L417.162 24.0985L417.88 22.506C417.979 22.359 418.064 22.2037 418.133 22.0421C418.641 20.8362 417.682 19.6368 416.775 19.299C415.869 18.9613 414.722 19.6651 414.215 20.871C413.714 22.0604 414.203 23.5714 415.087 23.9365L415.086 23.938L416.967 24.6749L416.981 24.6331L427.865 28.4145ZM424.689 24.5564L424.891 26.6654C423.71 25.1911 423.951 23.4395 423.951 23.4395C423.935 23.0328 423.789 22.6401 423.532 22.312C424.889 23.0755 424.689 24.5564 424.689 24.5564H424.689Z" fill="#3F3D56"/>
<path d="M121.588 131.281H102.923C102.582 128.866 101.886 126.722 100.835 124.847C99.7841 122.943 98.4347 121.324 96.7869 119.989C95.1392 118.653 93.2358 117.631 91.0767 116.92C88.946 116.21 86.6307 115.855 84.1307 115.855C79.6136 115.855 75.679 116.977 72.3267 119.222C68.9744 121.437 66.375 124.676 64.5284 128.938C62.6818 133.17 61.7585 138.312 61.7585 144.364C61.7585 150.585 62.6818 155.812 64.5284 160.045C66.4034 164.278 69.017 167.474 72.3693 169.634C75.7216 171.793 79.5994 172.872 84.0028 172.872C86.4744 172.872 88.7614 172.545 90.8636 171.892C92.9943 171.239 94.8835 170.287 96.5312 169.037C98.179 167.759 99.5426 166.21 100.622 164.392C101.73 162.574 102.497 160.5 102.923 158.17L121.588 158.256C121.105 162.261 119.898 166.125 117.966 169.847C116.063 173.54 113.491 176.849 110.253 179.776C107.043 182.673 103.207 184.974 98.7472 186.679C94.3153 188.355 89.3011 189.193 83.7045 189.193C75.9205 189.193 68.9602 187.432 62.8239 183.909C56.7159 180.386 51.8864 175.287 48.3352 168.611C44.8125 161.935 43.0511 153.852 43.0511 144.364C43.0511 134.847 44.8409 126.75 48.4205 120.074C52 113.398 56.858 108.312 62.9943 104.818C69.1307 101.295 76.0341 99.5341 83.7045 99.5341C88.7614 99.5341 93.4489 100.244 97.767 101.665C102.114 103.085 105.963 105.159 109.315 107.886C112.668 110.585 115.395 113.895 117.497 117.815C119.628 121.736 120.991 126.224 121.588 131.281ZM152.053 189.278C145.433 189.278 139.709 187.872 134.879 185.06C130.078 182.219 126.371 178.27 123.757 173.213C121.143 168.128 119.837 162.233 119.837 155.528C119.837 148.767 121.143 142.858 123.757 137.801C126.371 132.716 130.078 128.767 134.879 125.955C139.709 123.114 145.433 121.693 152.053 121.693C158.672 121.693 164.382 123.114 169.183 125.955C174.013 128.767 177.734 132.716 180.348 137.801C182.962 142.858 184.268 148.767 184.268 155.528C184.268 162.233 182.962 168.128 180.348 173.213C177.734 178.27 174.013 182.219 169.183 185.06C164.382 187.872 158.672 189.278 152.053 189.278ZM152.138 175.216C155.149 175.216 157.663 174.364 159.68 172.659C161.697 170.926 163.217 168.568 164.24 165.585C165.291 162.602 165.817 159.207 165.817 155.401C165.817 151.594 165.291 148.199 164.24 145.216C163.217 142.233 161.697 139.875 159.68 138.142C157.663 136.409 155.149 135.543 152.138 135.543C149.098 135.543 146.541 136.409 144.467 138.142C142.422 139.875 140.874 142.233 139.822 145.216C138.8 148.199 138.288 151.594 138.288 155.401C138.288 159.207 138.8 162.602 139.822 165.585C140.874 168.568 142.422 170.926 144.467 172.659C146.541 174.364 149.098 175.216 152.138 175.216ZM208.192 189.065C203.22 189.065 198.717 187.787 194.683 185.23C190.678 182.645 187.496 178.852 185.138 173.852C182.808 168.824 181.643 162.659 181.643 155.358C181.643 147.858 182.851 141.622 185.266 136.651C187.68 131.651 190.891 127.915 194.896 125.443C198.93 122.943 203.348 121.693 208.149 121.693C211.814 121.693 214.868 122.318 217.311 123.568C219.783 124.79 221.771 126.324 223.277 128.17C224.811 129.989 225.976 131.778 226.771 133.54H227.325V100.727H245.436V188H227.538V177.517H226.771C225.919 179.335 224.712 181.139 223.149 182.929C221.615 184.69 219.612 186.153 217.141 187.318C214.697 188.483 211.714 189.065 208.192 189.065ZM213.945 174.619C216.871 174.619 219.342 173.824 221.359 172.233C223.405 170.614 224.967 168.355 226.047 165.457C227.155 162.56 227.709 159.165 227.709 155.273C227.709 151.381 227.169 148 226.089 145.131C225.01 142.261 223.447 140.045 221.402 138.483C219.357 136.92 216.871 136.139 213.945 136.139C210.962 136.139 208.447 136.949 206.402 138.568C204.357 140.187 202.808 142.432 201.757 145.301C200.706 148.17 200.18 151.494 200.18 155.273C200.18 159.08 200.706 162.446 201.757 165.372C202.837 168.27 204.385 170.543 206.402 172.19C208.447 173.81 210.962 174.619 213.945 174.619ZM248.362 188V122.545H266.515V188H248.362ZM257.481 114.108C254.782 114.108 252.467 113.213 250.535 111.423C248.631 109.605 247.68 107.432 247.68 104.903C247.68 102.403 248.631 100.259 250.535 98.4688C252.467 96.6506 254.782 95.7415 257.481 95.7415C260.18 95.7415 262.481 96.6506 264.384 98.4688C266.316 100.259 267.282 102.403 267.282 104.903C267.282 107.432 266.316 109.605 264.384 111.423C262.481 113.213 260.18 114.108 257.481 114.108ZM287.21 150.159V188H269.057V122.545H286.358V134.094H287.125C288.574 130.287 291.003 127.276 294.412 125.06C297.821 122.815 301.955 121.693 306.812 121.693C311.358 121.693 315.321 122.688 318.702 124.676C322.082 126.665 324.71 129.506 326.585 133.199C328.46 136.864 329.398 141.239 329.398 146.324V188H311.244V149.562C311.273 145.557 310.25 142.432 308.176 140.188C306.102 137.915 303.247 136.778 299.611 136.778C297.168 136.778 295.009 137.304 293.134 138.355C291.287 139.406 289.838 140.94 288.787 142.957C287.764 144.946 287.239 147.347 287.21 150.159ZM361.194 213.909C355.313 213.909 350.271 213.099 346.066 211.48C341.89 209.889 338.566 207.716 336.094 204.96C333.623 202.205 332.018 199.108 331.279 195.67L348.069 193.412C348.58 194.719 349.39 195.94 350.498 197.077C351.606 198.213 353.069 199.122 354.887 199.804C356.734 200.514 358.978 200.869 361.62 200.869C365.569 200.869 368.822 199.903 371.379 197.972C373.964 196.068 375.256 192.872 375.256 188.384V176.409H374.489C373.694 178.227 372.501 179.946 370.91 181.565C369.319 183.185 367.273 184.506 364.773 185.528C362.273 186.551 359.29 187.062 355.825 187.062C350.91 187.062 346.435 185.926 342.401 183.653C338.396 181.352 335.2 177.844 332.813 173.128C330.455 168.384 329.276 162.389 329.276 155.145C329.276 147.73 330.484 141.537 332.898 136.565C335.313 131.594 338.523 127.872 342.529 125.401C346.563 122.929 350.981 121.693 355.782 121.693C359.447 121.693 362.515 122.318 364.987 123.568C367.458 124.79 369.447 126.324 370.952 128.17C372.487 129.989 373.665 131.778 374.489 133.54H375.171V122.545H393.197V188.639C393.197 194.207 391.833 198.866 389.106 202.616C386.379 206.366 382.6 209.179 377.771 211.054C372.969 212.957 367.444 213.909 361.194 213.909ZM361.577 173.426C364.504 173.426 366.975 172.702 368.992 171.253C371.038 169.776 372.6 167.673 373.68 164.946C374.788 162.19 375.342 158.895 375.342 155.06C375.342 151.224 374.802 147.901 373.722 145.088C372.643 142.247 371.08 140.045 369.035 138.483C366.989 136.92 364.504 136.139 361.577 136.139C358.594 136.139 356.08 136.949 354.035 138.568C351.989 140.159 350.441 142.375 349.39 145.216C348.339 148.057 347.813 151.338 347.813 155.06C347.813 158.838 348.339 162.105 349.39 164.861C350.469 167.588 352.018 169.705 354.035 171.21C356.08 172.687 358.594 173.426 361.577 173.426Z" fill="#2E2E2E"/>
<path d="M395.984 100.727H418.739L442.773 159.364H443.796L467.83 100.727H490.586V188H472.688V131.196H471.964L449.379 187.574H437.191L414.606 130.983H413.881V188H395.984V100.727ZM523.277 189.278C516.544 189.278 510.749 187.915 505.891 185.188C501.061 182.432 497.339 178.54 494.726 173.511C492.112 168.455 490.805 162.474 490.805 155.571C490.805 148.838 492.112 142.929 494.726 137.844C497.339 132.759 501.018 128.795 505.763 125.955C510.536 123.114 516.132 121.693 522.553 121.693C526.871 121.693 530.891 122.389 534.612 123.781C538.362 125.145 541.629 127.205 544.413 129.96C547.226 132.716 549.413 136.182 550.976 140.358C552.538 144.506 553.32 149.364 553.32 154.932V159.918H498.05V148.668H536.232C536.232 146.054 535.663 143.739 534.527 141.722C533.391 139.705 531.814 138.128 529.797 136.991C527.808 135.827 525.493 135.244 522.851 135.244C520.095 135.244 517.652 135.884 515.521 137.162C513.419 138.412 511.771 140.102 510.578 142.233C509.385 144.335 508.774 146.679 508.746 149.264V159.96C508.746 163.199 509.342 165.997 510.536 168.355C511.757 170.713 513.476 172.531 515.692 173.81C517.908 175.088 520.536 175.727 523.575 175.727C525.592 175.727 527.439 175.443 529.115 174.875C530.791 174.307 532.226 173.455 533.419 172.318C534.612 171.182 535.521 169.79 536.146 168.142L552.936 169.25C552.084 173.284 550.337 176.807 547.695 179.818C545.081 182.801 541.7 185.131 537.553 186.807C533.433 188.455 528.675 189.278 523.277 189.278ZM571.32 100.727V188H553.166V100.727H571.32ZM603.435 189.278C596.816 189.278 591.092 187.872 586.262 185.06C581.461 182.219 577.754 178.27 575.14 173.213C572.526 168.128 571.219 162.233 571.219 155.528C571.219 148.767 572.526 142.858 575.14 137.801C577.754 132.716 581.461 128.767 586.262 125.955C591.092 123.114 596.816 121.693 603.435 121.693C610.055 121.693 615.765 123.114 620.566 125.955C625.396 128.767 629.117 132.716 631.731 137.801C634.344 142.858 635.651 148.767 635.651 155.528C635.651 162.233 634.344 168.128 631.731 173.213C629.117 178.27 625.396 182.219 620.566 185.06C615.765 187.872 610.055 189.278 603.435 189.278ZM603.521 175.216C606.532 175.216 609.046 174.364 611.063 172.659C613.08 170.926 614.6 168.568 615.623 165.585C616.674 162.602 617.2 159.207 617.2 155.401C617.2 151.594 616.674 148.199 615.623 145.216C614.6 142.233 613.08 139.875 611.063 138.142C609.046 136.409 606.532 135.543 603.521 135.543C600.481 135.543 597.924 136.409 595.85 138.142C593.805 139.875 592.256 142.233 591.205 145.216C590.183 148.199 589.671 151.594 589.671 155.401C589.671 159.207 590.183 162.602 591.205 165.585C592.256 168.568 593.805 170.926 595.85 172.659C597.924 174.364 600.481 175.216 603.521 175.216ZM659.575 189.065C654.603 189.065 650.1 187.787 646.066 185.23C642.06 182.645 638.879 178.852 636.521 173.852C634.191 168.824 633.026 162.659 633.026 155.358C633.026 147.858 634.234 141.622 636.648 136.651C639.063 131.651 642.273 127.915 646.279 125.443C650.313 122.943 654.731 121.693 659.532 121.693C663.197 121.693 666.251 122.318 668.694 123.568C671.165 124.79 673.154 126.324 674.66 128.17C676.194 129.989 677.359 131.778 678.154 133.54H678.708V100.727H696.819V188H678.921V177.517H678.154C677.302 179.335 676.094 181.139 674.532 182.929C672.998 184.69 670.995 186.153 668.523 187.318C666.08 188.483 663.097 189.065 659.575 189.065ZM665.327 174.619C668.254 174.619 670.725 173.824 672.742 172.233C674.788 170.614 676.35 168.355 677.43 165.457C678.538 162.56 679.092 159.165 679.092 155.273C679.092 151.381 678.552 148 677.472 145.131C676.393 142.261 674.83 140.045 672.785 138.483C670.739 136.92 668.254 136.139 665.327 136.139C662.344 136.139 659.83 136.949 657.785 138.568C655.739 140.187 654.191 142.432 653.14 145.301C652.089 148.17 651.563 151.494 651.563 155.273C651.563 159.08 652.089 162.446 653.14 165.372C654.219 168.27 655.768 170.543 657.785 172.19C659.83 173.81 662.344 174.619 665.327 174.619ZM710.952 212.545C708.651 212.545 706.491 212.361 704.474 211.991C702.486 211.651 700.838 211.21 699.531 210.67L703.622 197.119C705.753 197.773 707.67 198.128 709.375 198.185C711.108 198.241 712.599 197.844 713.849 196.991C715.128 196.139 716.165 194.69 716.96 192.645L718.026 189.875L694.545 122.545H713.636L727.188 170.614H727.869L741.548 122.545H760.767L735.327 195.074C734.105 198.597 732.443 201.665 730.341 204.278C728.267 206.92 725.639 208.952 722.457 210.372C719.276 211.821 715.44 212.545 710.952 212.545Z" fill="#644CAB"/>
</g>
<defs>
<clipPath id="clip0_10_2">
<rect width="788" height="214" fill="white"/>
</clipPath>
</defs>
</svg>
