<svg width="500" height="500" viewBox="0 0 500 500" fill="none" xmlns="http://www.w3.org/2000/svg">
<path d="M42.91 232.6C42.91 232.6 118.48 189.16 165.34 189.16C221.62 189.16 276.34 208.52 297.04 214.91C351.53 231.7 457.04 232.6 457.04 232.6H42.91Z" fill="#DBDBDB"/>
<path d="M457.09 232.6C457.09 232.6 414.18 207.33 365.71 207.33C331.87 207.33 283.31 212.56 237.58 221.14C220.16 224.4 129.51 232.6 129.51 232.6H457.09Z" fill="#C7C7C7"/>
<path d="M279.62 192.22L280.49 193.98L282.44 194.26L281.03 195.63L281.36 197.57L279.62 196.65L277.89 197.57L278.22 195.63L276.81 194.26L278.75 193.98L279.62 192.22Z" fill="#DBDBDB"/>
<path d="M402 75.77L402.87 77.53L404.81 77.81L403.4 79.18L403.74 81.12L402 80.2L400.26 81.12L400.59 79.18L399.19 77.81L401.13 77.53L402 75.77Z" fill="#DBDBDB"/>
<path d="M229.19 125.51L230.06 127.27L232.01 127.56L230.6 128.93L230.93 130.86L229.19 129.95L227.46 130.86L227.79 128.93L226.38 127.56L228.33 127.27L229.19 125.51Z" fill="#DBDBDB"/>
<path d="M105.23 111.71L106.1 113.47L108.04 113.76L106.63 115.13L106.97 117.06L105.23 116.15L103.49 117.06L103.82 115.13L102.42 113.76L104.36 113.47L105.23 111.71Z" fill="#DBDBDB"/>
<path d="M41.65 55.41L42.19 56.5L43.39 56.67L42.52 57.52L42.73 58.72L41.65 58.15L40.58 58.72L40.78 57.52L39.91 56.67L41.12 56.5L41.65 55.41Z" fill="#DBDBDB"/>
<path d="M114.66 121.15L115.2 122.23L116.4 122.41L115.53 123.26L115.74 124.45L114.66 123.89L113.59 124.45L113.79 123.26L112.92 122.41L114.13 122.23L114.66 121.15Z" fill="#DBDBDB"/>
<path d="M349.63 156.85L350.17 157.94L351.37 158.11L350.5 158.96L350.7 160.15L349.63 159.59L348.56 160.15L348.76 158.96L347.89 158.11L349.09 157.94L349.63 156.85Z" fill="#DBDBDB"/>
<path d="M280.97 78.44L281.5 79.53L282.7 79.7L281.84 80.55L282.04 81.75L280.97 81.18L279.89 81.75L280.1 80.55L279.23 79.7L280.43 79.53L280.97 78.44Z" fill="#DBDBDB"/>
<path d="M312.74 39L313.27 40.09L314.47 40.26L313.61 41.11L313.81 42.31L312.74 41.74L311.66 42.31L311.87 41.11L311 40.26L312.2 40.09L312.74 39Z" fill="#DBDBDB"/>
<path d="M261.74 19L262.27 20.09L263.47 20.26L262.61 21.11L262.81 22.31L261.74 21.74L260.66 22.31L260.87 21.11L260 20.26L261.2 20.09L261.74 19Z" fill="#DBDBDB"/>
<path d="M381.74 12L382.27 13.09L383.47 13.26L382.61 14.11L382.81 15.31L381.74 14.74L380.66 15.31L380.87 14.11L380 13.26L381.2 13.09L381.74 12Z" fill="#DBDBDB"/>
<path d="M164.74 15L165.27 16.09L166.47 16.26L165.61 17.11L165.81 18.31L164.74 17.74L163.66 18.31L163.87 17.11L163 16.26L164.2 16.09L164.74 15Z" fill="#DBDBDB"/>
<path d="M458.35 138.01L458.88 139.1L460.09 139.28L459.22 140.12L459.42 141.32L458.35 140.75L457.27 141.32L457.48 140.12L456.61 139.28L457.81 139.1L458.35 138.01Z" fill="#DBDBDB"/>
<path d="M277.17 101.55C274.766 105.745 271.354 109.274 267.244 111.819C263.133 114.364 258.453 115.845 253.626 116.126C248.799 116.408 243.979 115.482 239.6 113.433C235.221 111.383 231.422 108.275 228.546 104.388C225.67 100.502 223.809 95.9595 223.129 91.1727C222.45 86.3858 222.975 81.5051 224.656 76.9719C226.337 72.4387 229.121 68.396 232.757 65.2092C236.393 62.0224 240.766 59.7922 245.48 58.72C241.808 60.4125 238.559 62.9023 235.97 66.0081C233.38 69.1139 231.516 72.7577 230.512 76.6746C229.508 80.5914 229.389 84.6828 230.165 88.6513C230.941 92.6197 232.591 96.3654 234.996 99.6159C237.401 102.866 240.5 105.54 244.068 107.442C247.637 109.345 251.584 110.428 255.623 110.613C259.662 110.798 263.692 110.081 267.419 108.513C271.147 106.945 274.478 104.567 277.17 101.55V101.55Z" fill="#DBDBDB"/>
<path d="M455.25 208.55C453.5 210.29 433.15 211.07 425.75 211.07C418.35 211.07 398.01 210.29 396.26 208.55C394.51 206.81 419.16 71.55 425.75 71.55C432.34 71.55 457 206.8 455.25 208.55Z" fill="#455A64" fill-opacity="0.85"/>
<path d="M455.65 174.09C450.65 176 432 183.59 427.98 185.8C427.98 184.95 427.98 184.1 427.98 183.26C432.47 180.61 436.98 178 441.49 175.38C446.32 172.56 451.49 170.05 456.02 166.74C456.24 166.57 456.12 166.12 455.82 166.25C450.82 168.32 446.23 171.39 441.6 174.11C436.97 176.83 432.49 179.56 427.98 182.34C427.98 175.86 427.953 169.38 427.9 162.9C435.241 159.855 442.335 156.248 449.12 152.11C449.35 151.98 449.2 151.55 448.93 151.66C441.681 154.588 434.662 158.054 427.93 162.03C427.93 158.657 427.907 155.287 427.86 151.92C427.67 134.57 427.64 117.2 427.2 99.84C431.61 97.61 436.2 95.65 440.57 93.41C440.86 93.26 440.66 92.76 440.35 92.88C435.87 94.62 431.56 96.7 427.16 98.63C426.92 89.68 426.58 80.73 426.04 71.79C426.029 71.736 425.999 71.6874 425.956 71.6526C425.914 71.6177 425.86 71.5987 425.805 71.5987C425.75 71.5987 425.696 71.6177 425.653 71.6526C425.611 71.6874 425.581 71.736 425.57 71.79C424.95 88.41 425.01 105.05 425.21 121.69C420.64 118.03 415.76 114.81 411.11 111.26C410.93 111.13 410.75 111.43 410.93 111.57C415.8 115.27 420.35 119.37 425.23 123.07C425.23 124.01 425.23 124.95 425.23 125.88C420.23 123.62 415.23 121.51 410.23 119.36C409.84 119.19 409.49 119.76 409.89 119.95C415 122.4 420.09 124.89 425.26 127.2C425.37 135.44 425.51 143.68 425.62 151.92C425.81 166.31 426.13 180.69 426.43 195.08C417.097 190.347 407.667 185.74 398.14 181.26C397.78 181.09 397.46 181.6 397.82 181.81C407.101 187.115 416.661 191.916 426.46 196.19C426.71 208.14 426.96 220.1 427.11 232.05C427.128 232.187 427.196 232.313 427.3 232.404C427.403 232.494 427.537 232.545 427.675 232.545C427.813 232.545 427.947 232.494 428.05 232.404C428.154 232.313 428.222 232.187 428.24 232.05C428.07 216.81 428.05 201.56 428.01 186.31C432.94 185.09 451.59 177.1 456.01 174.92C456.46 174.69 456.14 173.9 455.65 174.09Z" fill="#37474F"/>
<path d="M101.54 209.11C99.84 210.81 79.96 211.57 72.74 211.57C65.52 211.57 45.64 210.81 43.93 209.11C42.22 207.41 66.29 75.31 72.74 75.31C79.19 75.31 103.25 207.4 101.54 209.11Z" fill="#455A64"/>
<path d="M101.94 175.45C97.03 177.32 78.84 184.73 74.94 186.89C74.94 186.06 74.94 185.23 74.94 184.4C79.33 181.82 83.73 179.27 88.13 176.71C92.86 173.96 97.93 171.51 102.33 168.27C102.55 168.11 102.43 167.67 102.13 167.79C97.28 169.79 92.77 172.79 88.24 175.47C83.71 178.15 79.35 180.79 74.94 183.47C74.94 177.143 74.9133 170.81 74.86 164.47C82.0147 161.515 88.9317 158.015 95.55 154C95.77 153.86 95.62 153.45 95.36 153.55C88.2665 156.408 81.3972 159.794 74.81 163.68C74.81 160.39 74.81 157.1 74.74 153.81C74.56 136.81 74.53 119.89 74.1 102.94C78.41 100.77 82.85 98.85 87.16 96.66C87.44 96.52 87.25 96.02 86.94 96.14C82.57 97.85 78.36 99.87 74.06 101.76C73.83 93 73.5 84.26 73 75.53C72.9891 75.4784 72.9607 75.4322 72.9198 75.399C72.8788 75.3658 72.8277 75.3477 72.775 75.3477C72.7223 75.3477 72.6712 75.3658 72.6302 75.399C72.5892 75.4322 72.5609 75.4784 72.55 75.53C71.95 91.77 72 108.02 72.2 124.27C67.73 120.7 62.97 117.55 58.42 114.09C58.25 113.95 58.08 114.25 58.25 114.38C63 118 67.45 122.01 72.25 125.62V128.37C67.41 126.16 62.49 124.09 57.6 122C57.22 121.83 56.87 122.38 57.26 122.57C62.26 124.96 67.26 127.4 72.26 129.66C72.38 137.713 72.5 145.76 72.62 153.8C72.8 167.8 73.11 181.9 73.41 195.95C64.25 191.317 55.0267 186.82 45.74 182.46C45.39 182.29 45.08 182.79 45.43 182.99C54.5045 188.157 63.8514 192.831 73.43 196.99C73.68 208.66 73.92 220.34 74.07 231.99C74.07 232.136 74.1279 232.276 74.2311 232.379C74.3342 232.482 74.4741 232.54 74.62 232.54C74.7659 232.54 74.9058 232.482 75.0089 232.379C75.1121 232.276 75.17 232.136 75.17 231.99C75.01 217.09 74.99 202.2 74.95 187.31C79.77 186.12 97.95 178.31 102.31 176.18C102.73 176 102.41 175.27 101.94 175.45Z" fill="#37474F"/>
<path d="M404.57 211.84C403.06 213.35 385.5 214.02 379.12 214.02C372.74 214.02 355.17 213.35 353.66 211.84C352.15 210.33 373.42 93.62 379.12 93.62C384.82 93.62 406.08 210.33 404.57 211.84Z" fill="#37474F" fill-opacity="0.77"/>
<path d="M404.92 182.1C400.58 183.76 384.51 190.3 381.04 192.21C381.04 191.48 381.04 190.74 381.04 190.01C384.92 187.73 388.807 185.463 392.7 183.21C396.87 180.78 401.35 178.62 405.24 175.76C405.43 175.62 405.33 175.23 405.06 175.34C400.78 177.12 396.79 179.77 392.79 182.12C388.79 184.47 384.93 186.82 381.04 189.23C381.04 183.63 381.017 178.037 380.97 172.45C387.302 169.818 393.423 166.705 399.28 163.14C399.48 163.02 399.35 162.65 399.12 162.74C392.865 165.268 386.809 168.259 381 171.69C381 168.79 381 165.88 380.94 162.97C380.78 147.97 380.75 132.97 380.37 118.02C384.18 116.1 388.1 114.4 391.91 112.47C392.16 112.34 391.99 111.91 391.72 112.01C387.85 113.52 384.13 115.31 380.34 117.01C380.13 109.28 379.84 101.55 379.34 93.84C379.34 93.7869 379.319 93.7361 379.281 93.6986C379.244 93.6611 379.193 93.64 379.14 93.64C379.087 93.64 379.036 93.6611 378.999 93.6986C378.961 93.7361 378.94 93.7869 378.94 93.84C378.4 108.18 378.45 122.55 378.63 136.91C374.68 133.75 370.47 130.97 366.45 127.91C366.3 127.79 366.15 128.06 366.3 128.17C370.5 131.37 374.43 134.91 378.64 138.1V140.53C374.36 138.53 370.02 136.75 365.69 134.9C365.36 134.75 365.05 135.24 365.4 135.4C369.81 137.52 374.2 139.67 378.66 141.67C378.76 148.78 378.88 155.89 378.98 163C379.14 175.42 379.41 187.83 379.68 200.25C371.6 196.157 363.46 192.18 355.26 188.32C354.94 188.18 354.67 188.62 354.98 188.79C362.989 193.374 371.241 197.521 379.7 201.21C379.91 211.52 380.13 221.84 380.26 232.16C380.26 232.293 380.313 232.42 380.406 232.514C380.5 232.607 380.627 232.66 380.76 232.66C380.893 232.66 381.02 232.607 381.114 232.514C381.207 232.42 381.26 232.293 381.26 232.16C381.12 219 381.1 205.84 381.06 192.68C385.32 191.63 401.42 184.68 405.25 182.85C405.62 182.62 405.34 181.94 404.92 182.1Z" fill="#455A64"/>
<path d="M179.21 207.34C177.37 209.17 156 209.99 148.21 209.99C140.42 209.99 119.07 209.17 117.21 207.34C115.35 205.51 141.26 63.46 148.21 63.46C155.16 63.46 181 205.5 179.21 207.34Z" fill="#37474F" fill-opacity="0.71"/>
<path d="M179.63 171.14C174.36 173.14 154.8 181.14 150.57 183.44C150.57 182.55 150.57 181.66 150.57 180.77C155.29 177.99 160.02 175.25 164.75 172.49C169.83 169.49 175.29 166.9 180.02 163.42C180.25 163.25 180.12 162.78 179.81 162.91C174.58 165.08 169.74 168.31 164.87 171.16C160 174.01 155.31 176.88 150.57 179.81C150.57 173.01 150.54 166.203 150.48 159.39C158.19 156.191 165.642 152.403 172.77 148.06C173.01 147.92 172.85 147.47 172.57 147.59C164.94 150.659 157.552 154.299 150.47 158.48C150.47 154.94 150.447 151.4 150.4 147.86C150.2 129.63 150.17 111.39 149.7 93.16C154.34 90.82 159.12 88.75 163.75 86.4C164.06 86.25 163.84 85.72 163.52 85.84C158.81 87.68 154.28 89.84 149.67 91.84C149.41 82.43 149.06 73.03 148.48 63.64C148.48 63.5763 148.455 63.5153 148.41 63.4703C148.365 63.4253 148.304 63.4 148.24 63.4C148.176 63.4 148.115 63.4253 148.07 63.4703C148.025 63.5153 148 63.5763 148 63.64C147.35 81.1 147.4 98.58 147.62 116.05C142.82 112.22 137.69 108.82 132.8 105.1C132.61 104.96 132.43 105.28 132.62 105.42C137.73 109.31 142.51 113.62 147.62 117.5C147.62 118.5 147.62 119.5 147.62 120.5C142.41 118.12 137.12 115.9 131.86 113.65C131.44 113.47 131.08 114.06 131.5 114.27C136.86 116.84 142.2 119.46 147.64 121.89C147.76 130.54 147.91 139.2 148.02 147.89C148.22 163 148.55 178.11 148.87 193.22C139.043 188.253 129.137 183.417 119.15 178.71C118.77 178.53 118.44 179.07 118.82 179.28C128.564 184.854 138.602 189.898 148.89 194.39C149.16 206.94 149.42 219.5 149.58 232.06C149.599 232.205 149.67 232.337 149.779 232.433C149.888 232.53 150.029 232.583 150.175 232.583C150.321 232.583 150.462 232.53 150.571 232.433C150.68 232.337 150.751 232.205 150.77 232.06C150.59 216.06 150.57 200.06 150.52 184.01C155.71 182.73 175.3 174.34 179.95 172.01C180.48 171.78 180.14 171 179.63 171.14Z" fill="#455A64"/>
<path d="M184.23 214.94C185.51 216.23 200.45 216.8 205.88 216.8C211.31 216.8 226.25 216.23 227.53 214.94C228.81 213.65 210.72 114.39 205.88 114.39C201.04 114.39 183 213.66 184.23 214.94Z" fill="#455A64" fill-opacity="0.7"/>
<path d="M183.93 189.65C187.62 191.05 201.29 196.65 204.24 198.24C204.24 197.62 204.24 197 204.24 196.38C200.94 194.44 197.64 192.52 194.33 190.59C190.78 188.53 186.97 186.68 183.66 184.25C183.5 184.13 183.59 183.8 183.81 183.89C187.417 185.574 190.905 187.502 194.25 189.66C197.61 191.66 200.93 193.66 204.25 195.71C204.25 190.95 204.25 186.19 204.31 181.44C198.925 179.203 193.72 176.555 188.74 173.52C188.57 173.41 188.68 173.1 188.88 173.18C194.21 175.329 199.372 177.877 204.32 180.8C204.32 178.32 204.32 175.8 204.37 173.38C204.51 160.64 204.53 147.88 204.86 135.14C201.62 133.51 198.28 132.07 195.04 130.42C194.83 130.32 194.98 129.94 195.2 130.03C198.49 131.32 201.66 132.84 204.88 134.26C205.06 127.68 205.31 121.11 205.71 114.55C205.71 114.505 205.728 114.462 205.76 114.43C205.792 114.398 205.835 114.38 205.88 114.38C205.925 114.38 205.968 114.398 206 114.43C206.032 114.462 206.05 114.505 206.05 114.55C206.5 126.75 206.47 138.97 206.31 151.18C209.67 148.5 213.25 146.13 216.67 143.53C216.8 143.43 216.93 143.65 216.8 143.75C213.23 146.47 209.88 149.48 206.3 152.19V154.26C209.94 152.6 213.64 151.05 217.3 149.47C217.59 149.35 217.84 149.76 217.55 149.9C213.8 151.7 210.07 153.53 206.27 155.23C206.183 161.283 206.093 167.333 206 173.38C205.86 183.94 205.63 194.5 205.41 205.06C212.283 201.58 219.207 198.2 226.18 194.92C226.44 194.79 226.67 195.16 226.41 195.31C219.608 199.21 212.597 202.736 205.41 205.87C205.22 214.65 205.04 223.42 204.93 232.2C204.915 232.299 204.864 232.389 204.788 232.454C204.712 232.52 204.615 232.555 204.515 232.555C204.415 232.555 204.318 232.52 204.242 232.454C204.166 232.389 204.115 232.299 204.1 232.2C204.22 221.01 204.24 209.81 204.27 198.62C200.65 197.73 186.96 191.86 183.7 190.26C183.34 190.09 183.58 189.51 183.93 189.65Z" fill="#37474F"/>
<path d="M101.77 214.94C103.06 216.23 117.99 216.8 123.42 216.8C128.85 216.8 143.79 216.23 145.07 214.94C146.35 213.65 128.27 114.39 123.42 114.39C118.57 114.39 100.49 213.66 101.77 214.94Z" fill="#455A64" fill-opacity="0.91"/>
<path d="M101.47 189.65C105.16 191.05 118.84 196.65 121.79 198.24C121.79 197.62 121.79 197 121.79 196.38C118.49 194.44 115.18 192.52 111.87 190.59C108.32 188.53 104.51 186.68 101.2 184.25C101.04 184.13 101.13 183.8 101.35 183.89C104.957 185.574 108.445 187.502 111.79 189.66C115.15 191.66 118.47 193.66 121.79 195.71C121.79 190.95 121.81 186.193 121.85 181.44C116.461 179.205 111.252 176.557 106.27 173.52C106.1 173.41 106.21 173.1 106.41 173.18C111.741 175.327 116.903 177.874 121.85 180.8C121.85 178.32 121.85 175.8 121.91 173.38C122.04 160.64 122.07 147.88 122.39 135.14C119.15 133.51 115.81 132.07 112.57 130.42C112.36 130.32 112.51 129.94 112.74 130.03C116.02 131.32 119.19 132.84 122.42 134.26C122.59 127.68 122.84 121.11 123.24 114.55C123.24 114.505 123.258 114.462 123.29 114.43C123.322 114.398 123.365 114.38 123.41 114.38C123.455 114.38 123.498 114.398 123.53 114.43C123.562 114.462 123.58 114.505 123.58 114.55C124.04 126.75 124 138.97 123.85 151.18C127.2 148.5 130.78 146.13 134.2 143.53C134.33 143.43 134.46 143.65 134.33 143.75C130.76 146.47 127.42 149.48 123.83 152.19C123.83 152.88 123.83 153.57 123.83 154.26C127.47 152.6 131.16 151.05 134.83 149.47C135.12 149.35 135.38 149.76 135.08 149.9C131.33 151.7 127.6 153.53 123.8 155.23C123.72 161.28 123.61 167.33 123.54 173.38C123.4 183.94 123.17 194.5 122.94 205.06C129.813 201.58 136.737 198.2 143.71 194.92C143.98 194.79 144.21 195.16 143.94 195.31C137.139 199.212 130.128 202.738 122.94 205.87C122.76 214.65 122.58 223.42 122.46 232.2C122.445 232.299 122.394 232.389 122.318 232.454C122.242 232.52 122.145 232.555 122.045 232.555C121.945 232.555 121.848 232.52 121.772 232.454C121.696 232.389 121.645 232.299 121.63 232.2C121.76 221.01 121.78 209.81 121.81 198.62C118.18 197.73 104.49 191.86 101.24 190.26C100.88 190.09 101.12 189.51 101.47 189.65Z" fill="#37474F"/>
<path d="M38.64 232.6L91.48 232.36L144.32 232.27L250 232.1L355.68 232.27L408.52 232.35L461.36 232.6L408.52 232.84L355.68 232.93L250 233.1L144.32 232.93L91.48 232.84L38.64 232.6Z" fill="#263238"/>
<path d="M101.74 41L102.27 42.09L103.47 42.26L102.61 43.11L102.81 44.31L101.74 43.74L100.66 44.31L100.87 43.11L100 42.26L101.2 42.09L101.74 41Z" fill="#DBDBDB"/>
<path d="M453.74 17L454.27 18.09L455.47 18.26L454.61 19.11L454.81 20.31L453.74 19.74L452.66 20.31L452.87 19.11L452 18.26L453.2 18.09L453.74 17Z" fill="#DBDBDB"/>
</svg>
