<svg width="1565" height="540" viewBox="0 0 1565 540" fill="none" xmlns="http://www.w3.org/2000/svg">
<g clip-path="url(#clip0_2_78)">
<path opacity="0.25" d="M-308 559.487V351.182C-245.674 251.282 -172.901 206.417 -101.942 225.182C-10.1805 249.347 75.8554 375.077 167.76 393.932C264.06 413.552 360.177 317.972 452.329 235.262C542.669 154.262 632.695 123.302 725.422 176.402C772.567 203.402 816.518 256.682 861.642 308.432C982.46 446.987 1143.54 623.792 1257 323.372V559.487H-308Z" fill="#D7D7D7"/>
<path opacity="0.5" d="M-140 473.857V417.097C-120.446 341.308 -98.4248 269.72 -68.2663 215.185C9.52921 74.378 108.188 75.3473 197.806 145.069C244.661 181.509 288.191 238.665 332.684 287.958C394.235 356.171 460.132 453.106 529.475 466.282C584.016 476.514 636.12 432.463 677.785 352.976C725.573 261.821 771.525 130.385 833.662 90.8928C894.491 52.1548 956.026 114.911 1012.85 178.062C1069.68 241.214 1125.91 318.079 1188.72 332.62C1278.56 353.622 1359.11 250.476 1442.77 193.177C1488.2 162.086 1531.52 171.026 1573.77 220.103C1607.51 259.201 1645.97 316.787 1665 396.884V473.857H-140Z" fill="#8DCDDB"/>
<path d="M-187 540V514.665C38.7696 274.5 285.967 219.06 529.521 348.435C594.272 382.815 656.357 438.975 721.68 467.505C810.524 506.34 891.056 412.425 970.986 308.205C1059.72 192.51 1147.17 111.42 1245.35 135C1375.65 166.5 1505.04 340.695 1620 516.645V540H-187Z" fill="#312A47"/>
</g>
<defs>
<clipPath id="clip0_2_78">
<rect width="1565" height="540" fill="white" transform="matrix(1 0 0 -1 0 540)"/>
</clipPath>
</defs>
</svg>
